<mxfile host="app.diagrams.net" modified="2022-11-11T09:39:33.941Z" agent="5.0 (Windows NT 10.0; Win64; x64) AppleWebKit/537.36 (KHTML, like Gecko) Chrome/107.0.0.0 Safari/537.36" etag="K5pebb8CKPgszbKBmPIL" version="20.5.3" type="github" pages="13">
  <diagram id="d4oZ5c8wD7mMRkENbx5g" name="服务器处理客户端请求">
    <mxGraphModel dx="782" dy="436" grid="1" gridSize="10" guides="1" tooltips="1" connect="1" arrows="1" fold="1" page="1" pageScale="1" pageWidth="827" pageHeight="1169" math="0" shadow="0">
      <root>
        <mxCell id="0" />
        <mxCell id="1" parent="0" />
        <mxCell id="Y_myvK8Z_m-t3JicxtlA-18" value="" style="rounded=0;whiteSpace=wrap;html=1;dashed=1;fontFamily=Verdana;" parent="1" vertex="1">
          <mxGeometry x="130" y="110" width="400" height="330" as="geometry" />
        </mxCell>
        <mxCell id="Y_myvK8Z_m-t3JicxtlA-17" value="" style="rounded=0;whiteSpace=wrap;html=1;dashed=1;fontFamily=Verdana;" parent="1" vertex="1">
          <mxGeometry x="140" y="120" width="380" height="50" as="geometry" />
        </mxCell>
        <mxCell id="Y_myvK8Z_m-t3JicxtlA-16" value="" style="rounded=0;whiteSpace=wrap;html=1;fontFamily=Verdana;dashed=1;" parent="1" vertex="1">
          <mxGeometry x="140" y="180" width="380" height="170" as="geometry" />
        </mxCell>
        <mxCell id="Y_myvK8Z_m-t3JicxtlA-15" value="" style="rounded=0;whiteSpace=wrap;html=1;fontFamily=Verdana;dashed=1;" parent="1" vertex="1">
          <mxGeometry x="140" y="365" width="380" height="60" as="geometry" />
        </mxCell>
        <mxCell id="Y_myvK8Z_m-t3JicxtlA-23" style="edgeStyle=orthogonalEdgeStyle;rounded=0;orthogonalLoop=1;jettySize=auto;html=1;exitX=0.5;exitY=1;exitDx=0;exitDy=0;entryX=0.5;entryY=0;entryDx=0;entryDy=0;fontFamily=Verdana;" parent="1" source="Y_myvK8Z_m-t3JicxtlA-3" target="Y_myvK8Z_m-t3JicxtlA-5" edge="1">
          <mxGeometry relative="1" as="geometry" />
        </mxCell>
        <mxCell id="Y_myvK8Z_m-t3JicxtlA-3" value="客户端" style="rounded=1;whiteSpace=wrap;html=1;fillColor=#fff2cc;strokeColor=#d6b656;" parent="1" vertex="1">
          <mxGeometry x="280" y="60" width="100" height="30" as="geometry" />
        </mxCell>
        <mxCell id="Y_myvK8Z_m-t3JicxtlA-24" style="edgeStyle=orthogonalEdgeStyle;rounded=0;orthogonalLoop=1;jettySize=auto;html=1;exitX=0.5;exitY=1;exitDx=0;exitDy=0;entryX=0.5;entryY=0;entryDx=0;entryDy=0;fontFamily=Verdana;" parent="1" source="Y_myvK8Z_m-t3JicxtlA-5" target="Y_myvK8Z_m-t3JicxtlA-6" edge="1">
          <mxGeometry relative="1" as="geometry" />
        </mxCell>
        <mxCell id="Y_myvK8Z_m-t3JicxtlA-5" value="处理连接" style="rounded=1;whiteSpace=wrap;html=1;fillColor=#1ba1e2;strokeColor=#006EAF;fontColor=#ffffff;" parent="1" vertex="1">
          <mxGeometry x="280" y="132" width="100" height="30" as="geometry" />
        </mxCell>
        <mxCell id="Y_myvK8Z_m-t3JicxtlA-25" style="edgeStyle=orthogonalEdgeStyle;rounded=0;orthogonalLoop=1;jettySize=auto;html=1;exitX=0.5;exitY=1;exitDx=0;exitDy=0;entryX=0.5;entryY=0;entryDx=0;entryDy=0;fontFamily=Verdana;" parent="1" source="Y_myvK8Z_m-t3JicxtlA-6" target="Y_myvK8Z_m-t3JicxtlA-7" edge="1">
          <mxGeometry relative="1" as="geometry" />
        </mxCell>
        <mxCell id="Y_myvK8Z_m-t3JicxtlA-6" value="查询缓存" style="rounded=1;whiteSpace=wrap;html=1;fillColor=#1ba1e2;fontColor=#ffffff;strokeColor=#006EAF;" parent="1" vertex="1">
          <mxGeometry x="280" y="193" width="100" height="30" as="geometry" />
        </mxCell>
        <mxCell id="Y_myvK8Z_m-t3JicxtlA-26" style="edgeStyle=orthogonalEdgeStyle;rounded=0;orthogonalLoop=1;jettySize=auto;html=1;exitX=0.5;exitY=1;exitDx=0;exitDy=0;entryX=0.5;entryY=0;entryDx=0;entryDy=0;fontFamily=Verdana;" parent="1" source="Y_myvK8Z_m-t3JicxtlA-7" target="Y_myvK8Z_m-t3JicxtlA-8" edge="1">
          <mxGeometry relative="1" as="geometry" />
        </mxCell>
        <mxCell id="Y_myvK8Z_m-t3JicxtlA-7" value="语法解析" style="rounded=1;whiteSpace=wrap;html=1;fillColor=#1ba1e2;fontColor=#ffffff;strokeColor=#006EAF;" parent="1" vertex="1">
          <mxGeometry x="280" y="250" width="100" height="30" as="geometry" />
        </mxCell>
        <mxCell id="Y_myvK8Z_m-t3JicxtlA-8" value="查询优化" style="rounded=1;whiteSpace=wrap;html=1;fillColor=#1ba1e2;fontColor=#ffffff;strokeColor=#006EAF;" parent="1" vertex="1">
          <mxGeometry x="280" y="310" width="100" height="30" as="geometry" />
        </mxCell>
        <mxCell id="Y_myvK8Z_m-t3JicxtlA-9" value="&lt;font face=&quot;Verdana&quot;&gt;MyISAM&lt;/font&gt;" style="shape=cylinder3;whiteSpace=wrap;html=1;boundedLbl=1;backgroundOutline=1;size=15;fillColor=#d5e8d4;gradientColor=#97d077;strokeColor=#82b366;" parent="1" vertex="1">
          <mxGeometry x="160" y="370" width="70" height="50" as="geometry" />
        </mxCell>
        <mxCell id="Y_myvK8Z_m-t3JicxtlA-10" value="&lt;font face=&quot;Verdana&quot;&gt;InnoDB&lt;/font&gt;" style="shape=cylinder3;whiteSpace=wrap;html=1;boundedLbl=1;backgroundOutline=1;size=15;fillColor=#d5e8d4;gradientColor=#97d077;strokeColor=#82b366;" parent="1" vertex="1">
          <mxGeometry x="250" y="370" width="70" height="50" as="geometry" />
        </mxCell>
        <mxCell id="Y_myvK8Z_m-t3JicxtlA-11" value="&lt;font face=&quot;Verdana&quot;&gt;Memory&lt;/font&gt;" style="shape=cylinder3;whiteSpace=wrap;html=1;boundedLbl=1;backgroundOutline=1;size=15;fillColor=#d5e8d4;gradientColor=#97d077;strokeColor=#82b366;" parent="1" vertex="1">
          <mxGeometry x="340" y="370" width="70" height="50" as="geometry" />
        </mxCell>
        <mxCell id="Y_myvK8Z_m-t3JicxtlA-12" value="...." style="shape=cylinder3;whiteSpace=wrap;html=1;boundedLbl=1;backgroundOutline=1;size=15;fillColor=#d5e8d4;gradientColor=#97d077;strokeColor=#82b366;" parent="1" vertex="1">
          <mxGeometry x="430" y="370" width="70" height="50" as="geometry" />
        </mxCell>
        <mxCell id="Y_myvK8Z_m-t3JicxtlA-13" value="" style="verticalLabelPosition=bottom;verticalAlign=top;html=1;shape=mxgraph.basic.diag_snip_rect;dx=6;fillColor=#fff2cc;strokeColor=#d6b656;gradientColor=#ffd966;" parent="1" vertex="1">
          <mxGeometry x="250" y="450" width="160" height="30" as="geometry" />
        </mxCell>
        <mxCell id="Y_myvK8Z_m-t3JicxtlA-14" value="文件系统" style="text;html=1;strokeColor=none;fillColor=none;align=center;verticalAlign=middle;whiteSpace=wrap;rounded=0;fontFamily=Verdana;" parent="1" vertex="1">
          <mxGeometry x="300" y="450" width="60" height="30" as="geometry" />
        </mxCell>
        <mxCell id="Y_myvK8Z_m-t3JicxtlA-29" value="" style="endArrow=classic;html=1;rounded=0;fontFamily=Verdana;exitX=0.5;exitY=1;exitDx=0;exitDy=0;entryX=0.5;entryY=0;entryDx=0;entryDy=0;entryPerimeter=0;" parent="1" source="Y_myvK8Z_m-t3JicxtlA-8" target="Y_myvK8Z_m-t3JicxtlA-10" edge="1">
          <mxGeometry width="50" height="50" relative="1" as="geometry">
            <mxPoint x="390" y="300" as="sourcePoint" />
            <mxPoint x="440" y="250" as="targetPoint" />
          </mxGeometry>
        </mxCell>
        <mxCell id="Y_myvK8Z_m-t3JicxtlA-30" value="" style="endArrow=classic;html=1;rounded=0;fontFamily=Verdana;exitX=0.5;exitY=1;exitDx=0;exitDy=0;exitPerimeter=0;entryX=0.5;entryY=0;entryDx=0;entryDy=0;" parent="1" source="Y_myvK8Z_m-t3JicxtlA-10" target="Y_myvK8Z_m-t3JicxtlA-14" edge="1">
          <mxGeometry width="50" height="50" relative="1" as="geometry">
            <mxPoint x="390" y="300" as="sourcePoint" />
            <mxPoint x="440" y="250" as="targetPoint" />
          </mxGeometry>
        </mxCell>
        <mxCell id="Y_myvK8Z_m-t3JicxtlA-31" value="&lt;font style=&quot;font-size: 14px;&quot;&gt;连接管理&lt;/font&gt;" style="whiteSpace=wrap;html=1;shape=mxgraph.basic.rectCallout;dx=11.4;dy=19;boundedLbl=1;fontFamily=Verdana;fillColor=#cdeb8b;strokeColor=#36393d;" parent="1" vertex="1">
          <mxGeometry x="530" y="90" width="140" height="60" as="geometry" />
        </mxCell>
        <mxCell id="Y_myvK8Z_m-t3JicxtlA-32" value="&lt;font style=&quot;font-size: 14px;&quot;&gt;解析与优化&lt;/font&gt;" style="whiteSpace=wrap;html=1;shape=mxgraph.basic.rectCallout;dx=11.4;dy=19;boundedLbl=1;fontFamily=Verdana;fillColor=#cdeb8b;strokeColor=#36393d;" parent="1" vertex="1">
          <mxGeometry x="530" y="220" width="140" height="60" as="geometry" />
        </mxCell>
        <mxCell id="Y_myvK8Z_m-t3JicxtlA-34" value="&lt;font style=&quot;font-size: 14px;&quot;&gt;存储引擎&lt;/font&gt;" style="whiteSpace=wrap;html=1;shape=mxgraph.basic.rectCallout;dx=11.4;dy=19;boundedLbl=1;fontFamily=Verdana;fillColor=#cdeb8b;strokeColor=#36393d;" parent="1" vertex="1">
          <mxGeometry x="530" y="340" width="140" height="60" as="geometry" />
        </mxCell>
      </root>
    </mxGraphModel>
  </diagram>
  <diagram id="JTwCRdkqRf-yH1NHdIYG" name="请求编码处理过程">
    <mxGraphModel dx="782" dy="436" grid="1" gridSize="10" guides="1" tooltips="1" connect="1" arrows="1" fold="1" page="1" pageScale="1" pageWidth="827" pageHeight="1169" math="0" shadow="0">
      <root>
        <mxCell id="0" />
        <mxCell id="1" parent="0" />
        <mxCell id="g4mIn4xNetN_Wq16nZw8-1" value="客户端" style="rounded=1;whiteSpace=wrap;html=1;fillColor=#fff2cc;strokeColor=#d6b656;" parent="1" vertex="1">
          <mxGeometry x="80" y="225" width="100" height="30" as="geometry" />
        </mxCell>
        <mxCell id="uSiH-bjTc7MtGPjzQepE-1" value="" style="rounded=1;whiteSpace=wrap;html=1;dashed=1;fillColor=#d5e8d4;strokeColor=#82b366;" parent="1" vertex="1">
          <mxGeometry x="250" y="80" width="370" height="320" as="geometry" />
        </mxCell>
        <mxCell id="5ORI9rTE6pkDet58Hjhs-1" value="&lt;font style=&quot;font-size: 14px;&quot;&gt;服务器处理过程&lt;/font&gt;" style="text;html=1;strokeColor=none;fillColor=none;align=center;verticalAlign=middle;whiteSpace=wrap;rounded=0;" parent="1" vertex="1">
          <mxGeometry x="380" y="80" width="110" height="30" as="geometry" />
        </mxCell>
        <mxCell id="rZMv2dQdLgAZXNuSSkDK-4" style="edgeStyle=orthogonalEdgeStyle;rounded=0;orthogonalLoop=1;jettySize=auto;html=1;exitX=0.5;exitY=1;exitDx=0;exitDy=0;entryX=0.5;entryY=0;entryDx=0;entryDy=0;fontSize=14;" parent="1" source="lV5WM6oxoa0fZzl4xDW7-1" target="lV5WM6oxoa0fZzl4xDW7-5" edge="1">
          <mxGeometry relative="1" as="geometry" />
        </mxCell>
        <mxCell id="lV5WM6oxoa0fZzl4xDW7-1" value="将 &lt;span style=&quot;background-color: rgb(255, 217, 28);&quot;&gt;character_set_client&lt;/span&gt; 的编码转换为&lt;br&gt;&lt;span style=&quot;background-color: rgb(255, 217, 28);&quot;&gt;character_set_connection&lt;/span&gt; 的编码" style="rounded=0;whiteSpace=wrap;html=1;fontSize=14;fillColor=#b0e3e6;strokeColor=#0e8088;" parent="1" vertex="1">
          <mxGeometry x="290" y="120" width="290" height="60" as="geometry" />
        </mxCell>
        <mxCell id="rZMv2dQdLgAZXNuSSkDK-5" style="edgeStyle=orthogonalEdgeStyle;rounded=0;orthogonalLoop=1;jettySize=auto;html=1;exitX=0.5;exitY=1;exitDx=0;exitDy=0;entryX=0.5;entryY=0;entryDx=0;entryDy=0;fontSize=14;" parent="1" source="lV5WM6oxoa0fZzl4xDW7-5" target="lV5WM6oxoa0fZzl4xDW7-6" edge="1">
          <mxGeometry relative="1" as="geometry" />
        </mxCell>
        <mxCell id="lV5WM6oxoa0fZzl4xDW7-5" value="将 &lt;span style=&quot;background-color: rgb(255, 217, 28);&quot;&gt;character_set_connection&lt;/span&gt; 的编码&lt;br&gt;转换具体列对应的编码" style="rounded=0;whiteSpace=wrap;html=1;fontSize=14;fillColor=#b0e3e6;strokeColor=#0e8088;" parent="1" vertex="1">
          <mxGeometry x="290" y="225" width="290" height="60" as="geometry" />
        </mxCell>
        <mxCell id="lV5WM6oxoa0fZzl4xDW7-6" value="将查询结果从具体列使用的编码转换为&lt;br&gt;&lt;span style=&quot;background-color: rgb(255, 217, 28);&quot;&gt;character_set_results&lt;/span&gt; 的编码" style="rounded=0;whiteSpace=wrap;html=1;fontSize=14;fillColor=#b0e3e6;strokeColor=#0e8088;" parent="1" vertex="1">
          <mxGeometry x="290" y="320" width="290" height="60" as="geometry" />
        </mxCell>
        <mxCell id="rZMv2dQdLgAZXNuSSkDK-2" value="" style="endArrow=classic;html=1;rounded=0;fontSize=14;entryX=0;entryY=0.5;entryDx=0;entryDy=0;exitX=0.5;exitY=0;exitDx=0;exitDy=0;" parent="1" source="g4mIn4xNetN_Wq16nZw8-1" target="lV5WM6oxoa0fZzl4xDW7-1" edge="1">
          <mxGeometry width="50" height="50" relative="1" as="geometry">
            <mxPoint x="180" y="230" as="sourcePoint" />
            <mxPoint x="230" y="180" as="targetPoint" />
          </mxGeometry>
        </mxCell>
        <mxCell id="rZMv2dQdLgAZXNuSSkDK-8" value="" style="endArrow=classic;html=1;rounded=0;fontSize=14;exitX=0;exitY=0.5;exitDx=0;exitDy=0;entryX=0.5;entryY=1;entryDx=0;entryDy=0;" parent="1" source="lV5WM6oxoa0fZzl4xDW7-6" target="g4mIn4xNetN_Wq16nZw8-1" edge="1">
          <mxGeometry width="50" height="50" relative="1" as="geometry">
            <mxPoint x="200" y="330" as="sourcePoint" />
            <mxPoint x="250" y="280" as="targetPoint" />
          </mxGeometry>
        </mxCell>
        <mxCell id="rZMv2dQdLgAZXNuSSkDK-12" value="使用操作系统的字符集&lt;b&gt;&lt;font color=&quot;#ff0000&quot;&gt;编码&lt;/font&gt;&lt;/b&gt;请求字符串" style="text;html=1;strokeColor=none;fillColor=none;align=center;verticalAlign=middle;whiteSpace=wrap;rounded=0;dashed=1;labelBackgroundColor=none;fontSize=14;rotation=-25;" parent="1" vertex="1">
          <mxGeometry x="120" y="150" width="130" height="50" as="geometry" />
        </mxCell>
        <mxCell id="rZMv2dQdLgAZXNuSSkDK-14" value="使用操作系统的字符集&lt;font color=&quot;#ff0000&quot;&gt;&lt;b&gt;解码&lt;/b&gt;&lt;/font&gt;响应字符串" style="text;html=1;strokeColor=none;fillColor=none;align=center;verticalAlign=middle;whiteSpace=wrap;rounded=0;dashed=1;labelBackgroundColor=none;fontSize=14;rotation=30;" parent="1" vertex="1">
          <mxGeometry x="120" y="300" width="130" height="50" as="geometry" />
        </mxCell>
      </root>
    </mxGraphModel>
  </diagram>
  <diagram id="BeE83QxPG2JuytpiEz03" name="Compact行格式">
    <mxGraphModel dx="782" dy="436" grid="1" gridSize="10" guides="1" tooltips="1" connect="1" arrows="1" fold="1" page="1" pageScale="1" pageWidth="827" pageHeight="1169" math="0" shadow="0">
      <root>
        <mxCell id="0" />
        <mxCell id="1" parent="0" />
        <mxCell id="QNaESwGzr8rM0D7BNXny-1" value="变长字段长度列表" style="rounded=0;whiteSpace=wrap;html=1;fillColor=#1ba1e2;strokeColor=#006EAF;fontColor=#ffffff;" parent="1" vertex="1">
          <mxGeometry x="110" y="190" width="120" height="40" as="geometry" />
        </mxCell>
        <mxCell id="QNaESwGzr8rM0D7BNXny-2" value="NULL 值列表" style="rounded=0;whiteSpace=wrap;html=1;fillColor=#60a917;fontColor=#ffffff;strokeColor=#2D7600;" parent="1" vertex="1">
          <mxGeometry x="230" y="190" width="90" height="40" as="geometry" />
        </mxCell>
        <mxCell id="QNaESwGzr8rM0D7BNXny-3" value="记录头信息" style="rounded=0;whiteSpace=wrap;html=1;fillColor=#1ba1e2;strokeColor=#006EAF;fontColor=#ffffff;" parent="1" vertex="1">
          <mxGeometry x="320" y="190" width="90" height="40" as="geometry" />
        </mxCell>
        <mxCell id="QNaESwGzr8rM0D7BNXny-4" value="列1的值" style="rounded=0;whiteSpace=wrap;html=1;fillColor=#fad7ac;strokeColor=#b46504;" parent="1" vertex="1">
          <mxGeometry x="410" y="190" width="80" height="40" as="geometry" />
        </mxCell>
        <mxCell id="Gu8BlMnQRS-qkP6g1Zi7-1" value="..." style="rounded=0;whiteSpace=wrap;html=1;fillColor=#fad7ac;strokeColor=#b46504;" parent="1" vertex="1">
          <mxGeometry x="490" y="190" width="60" height="40" as="geometry" />
        </mxCell>
        <mxCell id="Gu8BlMnQRS-qkP6g1Zi7-2" value="列n的值" style="rounded=0;whiteSpace=wrap;html=1;fillColor=#fad7ac;strokeColor=#b46504;" parent="1" vertex="1">
          <mxGeometry x="550" y="190" width="80" height="40" as="geometry" />
        </mxCell>
        <mxCell id="Gu8BlMnQRS-qkP6g1Zi7-3" value="" style="endArrow=none;html=1;rounded=0;" parent="1" edge="1">
          <mxGeometry width="50" height="50" relative="1" as="geometry">
            <mxPoint x="110" y="190" as="sourcePoint" />
            <mxPoint x="110" y="120" as="targetPoint" />
          </mxGeometry>
        </mxCell>
        <mxCell id="Gu8BlMnQRS-qkP6g1Zi7-4" value="" style="endArrow=none;html=1;rounded=0;" parent="1" edge="1">
          <mxGeometry width="50" height="50" relative="1" as="geometry">
            <mxPoint x="409" y="190" as="sourcePoint" />
            <mxPoint x="409" y="120" as="targetPoint" />
          </mxGeometry>
        </mxCell>
        <mxCell id="Gu8BlMnQRS-qkP6g1Zi7-5" value="" style="endArrow=none;html=1;rounded=0;" parent="1" edge="1">
          <mxGeometry width="50" height="50" relative="1" as="geometry">
            <mxPoint x="630" y="190" as="sourcePoint" />
            <mxPoint x="630" y="120" as="targetPoint" />
          </mxGeometry>
        </mxCell>
        <mxCell id="Gu8BlMnQRS-qkP6g1Zi7-6" value="" style="endArrow=classic;startArrow=classic;html=1;rounded=0;" parent="1" edge="1">
          <mxGeometry width="50" height="50" relative="1" as="geometry">
            <mxPoint x="110" y="137" as="sourcePoint" />
            <mxPoint x="410" y="137" as="targetPoint" />
          </mxGeometry>
        </mxCell>
        <mxCell id="Gu8BlMnQRS-qkP6g1Zi7-8" value="&lt;font style=&quot;font-size: 14px;&quot;&gt;&amp;nbsp;记录的额外信息&amp;nbsp;&lt;/font&gt;" style="edgeLabel;html=1;align=center;verticalAlign=middle;resizable=0;points=[];" parent="Gu8BlMnQRS-qkP6g1Zi7-6" vertex="1" connectable="0">
          <mxGeometry x="-0.0889" y="1" relative="1" as="geometry">
            <mxPoint as="offset" />
          </mxGeometry>
        </mxCell>
        <mxCell id="Gu8BlMnQRS-qkP6g1Zi7-7" value="" style="endArrow=classic;startArrow=classic;html=1;rounded=0;" parent="1" edge="1">
          <mxGeometry width="50" height="50" relative="1" as="geometry">
            <mxPoint x="410" y="137" as="sourcePoint" />
            <mxPoint x="630" y="137" as="targetPoint" />
          </mxGeometry>
        </mxCell>
        <mxCell id="Gu8BlMnQRS-qkP6g1Zi7-9" value="&amp;nbsp;记录的真实数据&amp;nbsp;" style="edgeLabel;html=1;align=center;verticalAlign=middle;resizable=0;points=[];fontSize=14;" parent="Gu8BlMnQRS-qkP6g1Zi7-7" vertex="1" connectable="0">
          <mxGeometry x="-0.1758" y="2" relative="1" as="geometry">
            <mxPoint as="offset" />
          </mxGeometry>
        </mxCell>
      </root>
    </mxGraphModel>
  </diagram>
  <diagram id="7keAY-idj5zVT67h-jlR" name="compact隐藏列">
    <mxGraphModel dx="782" dy="436" grid="1" gridSize="10" guides="1" tooltips="1" connect="1" arrows="1" fold="1" page="1" pageScale="1" pageWidth="827" pageHeight="1169" math="0" shadow="0">
      <root>
        <mxCell id="0" />
        <mxCell id="1" parent="0" />
        <mxCell id="MfqfqKfWmpM-IFc78rlB-1" value="变长字段长度列表" style="rounded=0;whiteSpace=wrap;html=1;fillColor=#1ba1e2;strokeColor=#006EAF;fontColor=#ffffff;" parent="1" vertex="1">
          <mxGeometry x="20" y="190" width="120" height="40" as="geometry" />
        </mxCell>
        <mxCell id="MfqfqKfWmpM-IFc78rlB-2" value="NULL 值列表" style="rounded=0;whiteSpace=wrap;html=1;fillColor=#60a917;fontColor=#ffffff;strokeColor=#2D7600;" parent="1" vertex="1">
          <mxGeometry x="140" y="190" width="90" height="40" as="geometry" />
        </mxCell>
        <mxCell id="MfqfqKfWmpM-IFc78rlB-3" value="记录头信息" style="rounded=0;whiteSpace=wrap;html=1;fillColor=#1ba1e2;strokeColor=#006EAF;fontColor=#ffffff;" parent="1" vertex="1">
          <mxGeometry x="230" y="190" width="90" height="40" as="geometry" />
        </mxCell>
        <mxCell id="MfqfqKfWmpM-IFc78rlB-4" value="列1的值" style="rounded=0;whiteSpace=wrap;html=1;fillColor=#fad7ac;strokeColor=#b46504;" parent="1" vertex="1">
          <mxGeometry x="560" y="190" width="80" height="40" as="geometry" />
        </mxCell>
        <mxCell id="MfqfqKfWmpM-IFc78rlB-5" value="..." style="rounded=0;whiteSpace=wrap;html=1;fillColor=#fad7ac;strokeColor=#b46504;" parent="1" vertex="1">
          <mxGeometry x="640" y="190" width="60" height="40" as="geometry" />
        </mxCell>
        <mxCell id="MfqfqKfWmpM-IFc78rlB-6" value="列n的值" style="rounded=0;whiteSpace=wrap;html=1;fillColor=#fad7ac;strokeColor=#b46504;" parent="1" vertex="1">
          <mxGeometry x="700" y="190" width="80" height="40" as="geometry" />
        </mxCell>
        <mxCell id="MfqfqKfWmpM-IFc78rlB-7" value="" style="endArrow=none;html=1;rounded=0;" parent="1" edge="1">
          <mxGeometry width="50" height="50" relative="1" as="geometry">
            <mxPoint x="20" y="190" as="sourcePoint" />
            <mxPoint x="20" y="120" as="targetPoint" />
          </mxGeometry>
        </mxCell>
        <mxCell id="MfqfqKfWmpM-IFc78rlB-8" value="" style="endArrow=none;html=1;rounded=0;" parent="1" edge="1">
          <mxGeometry width="50" height="50" relative="1" as="geometry">
            <mxPoint x="560" y="190" as="sourcePoint" />
            <mxPoint x="560" y="120" as="targetPoint" />
          </mxGeometry>
        </mxCell>
        <mxCell id="MfqfqKfWmpM-IFc78rlB-9" value="" style="endArrow=none;html=1;rounded=0;" parent="1" edge="1">
          <mxGeometry width="50" height="50" relative="1" as="geometry">
            <mxPoint x="320" y="190" as="sourcePoint" />
            <mxPoint x="320" y="120" as="targetPoint" />
          </mxGeometry>
        </mxCell>
        <mxCell id="MfqfqKfWmpM-IFc78rlB-10" value="" style="endArrow=classic;startArrow=classic;html=1;rounded=0;" parent="1" edge="1">
          <mxGeometry width="50" height="50" relative="1" as="geometry">
            <mxPoint x="20" y="137" as="sourcePoint" />
            <mxPoint x="320" y="137" as="targetPoint" />
          </mxGeometry>
        </mxCell>
        <mxCell id="MfqfqKfWmpM-IFc78rlB-11" value="&lt;font style=&quot;font-size: 14px;&quot;&gt;&amp;nbsp;记录的额外信息&amp;nbsp;&lt;/font&gt;" style="edgeLabel;html=1;align=center;verticalAlign=middle;resizable=0;points=[];" parent="MfqfqKfWmpM-IFc78rlB-10" vertex="1" connectable="0">
          <mxGeometry x="-0.0889" y="1" relative="1" as="geometry">
            <mxPoint as="offset" />
          </mxGeometry>
        </mxCell>
        <mxCell id="MfqfqKfWmpM-IFc78rlB-12" value="" style="endArrow=classic;startArrow=classic;html=1;rounded=0;" parent="1" edge="1">
          <mxGeometry width="50" height="50" relative="1" as="geometry">
            <mxPoint x="560" y="137" as="sourcePoint" />
            <mxPoint x="780" y="137" as="targetPoint" />
          </mxGeometry>
        </mxCell>
        <mxCell id="MfqfqKfWmpM-IFc78rlB-13" value="&amp;nbsp;记录的真实数据&amp;nbsp;" style="edgeLabel;html=1;align=center;verticalAlign=middle;resizable=0;points=[];fontSize=14;" parent="MfqfqKfWmpM-IFc78rlB-12" vertex="1" connectable="0">
          <mxGeometry x="-0.1758" y="2" relative="1" as="geometry">
            <mxPoint as="offset" />
          </mxGeometry>
        </mxCell>
        <mxCell id="MfqfqKfWmpM-IFc78rlB-14" value="" style="rounded=0;whiteSpace=wrap;html=1;fillColor=#fff2cc;strokeColor=#d6b656;" parent="1" vertex="1">
          <mxGeometry x="320" y="190" width="80" height="40" as="geometry" />
        </mxCell>
        <mxCell id="MfqfqKfWmpM-IFc78rlB-15" value="" style="rounded=0;whiteSpace=wrap;html=1;fillColor=#fff2cc;strokeColor=#d6b656;" parent="1" vertex="1">
          <mxGeometry x="400" y="190" width="70" height="40" as="geometry" />
        </mxCell>
        <mxCell id="MfqfqKfWmpM-IFc78rlB-16" value="" style="rounded=0;whiteSpace=wrap;html=1;fillColor=#fff2cc;strokeColor=#d6b656;" parent="1" vertex="1">
          <mxGeometry x="470" y="190" width="90" height="40" as="geometry" />
        </mxCell>
        <mxCell id="MfqfqKfWmpM-IFc78rlB-17" value="" style="endArrow=none;html=1;rounded=0;" parent="1" edge="1">
          <mxGeometry width="50" height="50" relative="1" as="geometry">
            <mxPoint x="780" y="190" as="sourcePoint" />
            <mxPoint x="780" y="120" as="targetPoint" />
          </mxGeometry>
        </mxCell>
        <mxCell id="MfqfqKfWmpM-IFc78rlB-18" value="" style="endArrow=classic;startArrow=classic;html=1;rounded=0;" parent="1" edge="1">
          <mxGeometry width="50" height="50" relative="1" as="geometry">
            <mxPoint x="320" y="137" as="sourcePoint" />
            <mxPoint x="560" y="137" as="targetPoint" />
          </mxGeometry>
        </mxCell>
        <mxCell id="MfqfqKfWmpM-IFc78rlB-19" value="&amp;nbsp;隐藏列&amp;nbsp;" style="edgeLabel;html=1;align=center;verticalAlign=middle;resizable=0;points=[];" parent="MfqfqKfWmpM-IFc78rlB-18" vertex="1" connectable="0">
          <mxGeometry x="-0.1852" y="2" relative="1" as="geometry">
            <mxPoint as="offset" />
          </mxGeometry>
        </mxCell>
        <mxCell id="MfqfqKfWmpM-IFc78rlB-20" value="&lt;font style=&quot;font-size: 12px;&quot;&gt;DB_ROW_ID&lt;/font&gt;" style="text;html=1;strokeColor=none;fillColor=none;align=center;verticalAlign=middle;whiteSpace=wrap;rounded=0;fontSize=12;" parent="1" vertex="1">
          <mxGeometry x="330" y="195" width="60" height="30" as="geometry" />
        </mxCell>
        <mxCell id="MfqfqKfWmpM-IFc78rlB-21" value="DB_TRX_ID" style="text;html=1;strokeColor=none;fillColor=none;align=center;verticalAlign=middle;whiteSpace=wrap;rounded=0;fontSize=12;" parent="1" vertex="1">
          <mxGeometry x="406" y="195" width="60" height="30" as="geometry" />
        </mxCell>
        <mxCell id="MfqfqKfWmpM-IFc78rlB-22" value="DB_ROLL_PTR" style="text;html=1;strokeColor=none;fillColor=none;align=center;verticalAlign=middle;whiteSpace=wrap;rounded=0;fontSize=12;" parent="1" vertex="1">
          <mxGeometry x="485" y="195" width="60" height="30" as="geometry" />
        </mxCell>
        <mxCell id="MfqfqKfWmpM-IFc78rlB-23" value="row_id" style="text;html=1;strokeColor=none;fillColor=none;align=center;verticalAlign=middle;whiteSpace=wrap;rounded=0;fontSize=12;" parent="1" vertex="1">
          <mxGeometry x="330" y="165" width="60" height="30" as="geometry" />
        </mxCell>
        <mxCell id="MfqfqKfWmpM-IFc78rlB-24" value="transaction_id" style="text;html=1;strokeColor=none;fillColor=none;align=center;verticalAlign=middle;whiteSpace=wrap;rounded=0;fontSize=12;" parent="1" vertex="1">
          <mxGeometry x="406" y="165" width="60" height="30" as="geometry" />
        </mxCell>
        <mxCell id="MfqfqKfWmpM-IFc78rlB-25" value="roll_pointer" style="text;html=1;strokeColor=none;fillColor=none;align=center;verticalAlign=middle;whiteSpace=wrap;rounded=0;fontSize=12;" parent="1" vertex="1">
          <mxGeometry x="490" y="165" width="60" height="30" as="geometry" />
        </mxCell>
      </root>
    </mxGraphModel>
  </diagram>
  <diagram id="rONKOYbSbHq9hKiYG8cw" name="compact记录格式案例">
    <mxGraphModel dx="782" dy="436" grid="1" gridSize="10" guides="1" tooltips="1" connect="1" arrows="1" fold="1" page="1" pageScale="1" pageWidth="827" pageHeight="1169" math="0" shadow="0">
      <root>
        <mxCell id="0" />
        <mxCell id="1" parent="0" />
        <mxCell id="OWdMWggZUANXXC-HVxcE-1" value="01 03 04" style="rounded=0;whiteSpace=wrap;html=1;fillColor=#1ba1e2;strokeColor=#006EAF;fontColor=#ffffff;" parent="1" vertex="1">
          <mxGeometry x="110" y="190" width="120" height="40" as="geometry" />
        </mxCell>
        <mxCell id="OWdMWggZUANXXC-HVxcE-2" value="00" style="rounded=0;whiteSpace=wrap;html=1;fillColor=#60a917;fontColor=#ffffff;strokeColor=#2D7600;" parent="1" vertex="1">
          <mxGeometry x="230" y="190" width="90" height="40" as="geometry" />
        </mxCell>
        <mxCell id="OWdMWggZUANXXC-HVxcE-3" value="记录头信息" style="rounded=0;whiteSpace=wrap;html=1;fillColor=#1ba1e2;strokeColor=#006EAF;fontColor=#ffffff;" parent="1" vertex="1">
          <mxGeometry x="320" y="190" width="90" height="40" as="geometry" />
        </mxCell>
        <mxCell id="OWdMWggZUANXXC-HVxcE-4" value="列1的值" style="rounded=0;whiteSpace=wrap;html=1;fillColor=#fad7ac;strokeColor=#b46504;" parent="1" vertex="1">
          <mxGeometry x="410" y="190" width="80" height="40" as="geometry" />
        </mxCell>
        <mxCell id="OWdMWggZUANXXC-HVxcE-5" value="..." style="rounded=0;whiteSpace=wrap;html=1;fillColor=#fad7ac;strokeColor=#b46504;" parent="1" vertex="1">
          <mxGeometry x="490" y="190" width="60" height="40" as="geometry" />
        </mxCell>
        <mxCell id="OWdMWggZUANXXC-HVxcE-6" value="列n的值" style="rounded=0;whiteSpace=wrap;html=1;fillColor=#fad7ac;strokeColor=#b46504;" parent="1" vertex="1">
          <mxGeometry x="550" y="190" width="80" height="40" as="geometry" />
        </mxCell>
        <mxCell id="OWdMWggZUANXXC-HVxcE-14" value="03 04" style="rounded=0;whiteSpace=wrap;html=1;fillColor=#1ba1e2;strokeColor=#006EAF;fontColor=#ffffff;" parent="1" vertex="1">
          <mxGeometry x="110" y="230" width="120" height="40" as="geometry" />
        </mxCell>
        <mxCell id="OWdMWggZUANXXC-HVxcE-15" value="06" style="rounded=0;whiteSpace=wrap;html=1;fillColor=#60a917;fontColor=#ffffff;strokeColor=#2D7600;" parent="1" vertex="1">
          <mxGeometry x="230" y="230" width="90" height="40" as="geometry" />
        </mxCell>
        <mxCell id="OWdMWggZUANXXC-HVxcE-16" value="记录头信息" style="rounded=0;whiteSpace=wrap;html=1;fillColor=#1ba1e2;strokeColor=#006EAF;fontColor=#ffffff;" parent="1" vertex="1">
          <mxGeometry x="320" y="230" width="90" height="40" as="geometry" />
        </mxCell>
        <mxCell id="OWdMWggZUANXXC-HVxcE-17" value="列1的值" style="rounded=0;whiteSpace=wrap;html=1;fillColor=#fad7ac;strokeColor=#b46504;" parent="1" vertex="1">
          <mxGeometry x="410" y="230" width="80" height="40" as="geometry" />
        </mxCell>
        <mxCell id="OWdMWggZUANXXC-HVxcE-18" value="..." style="rounded=0;whiteSpace=wrap;html=1;fillColor=#fad7ac;strokeColor=#b46504;" parent="1" vertex="1">
          <mxGeometry x="490" y="230" width="60" height="40" as="geometry" />
        </mxCell>
        <mxCell id="OWdMWggZUANXXC-HVxcE-19" value="列n的值" style="rounded=0;whiteSpace=wrap;html=1;fillColor=#fad7ac;strokeColor=#b46504;" parent="1" vertex="1">
          <mxGeometry x="550" y="230" width="80" height="40" as="geometry" />
        </mxCell>
        <mxCell id="OWdMWggZUANXXC-HVxcE-20" value="第一条记录" style="text;html=1;strokeColor=none;fillColor=none;align=center;verticalAlign=middle;whiteSpace=wrap;rounded=0;" parent="1" vertex="1">
          <mxGeometry x="30" y="200" width="70" height="30" as="geometry" />
        </mxCell>
        <mxCell id="OWdMWggZUANXXC-HVxcE-21" value="第二条记录" style="text;html=1;strokeColor=none;fillColor=none;align=center;verticalAlign=middle;whiteSpace=wrap;rounded=0;" parent="1" vertex="1">
          <mxGeometry x="30" y="235" width="70" height="30" as="geometry" />
        </mxCell>
      </root>
    </mxGraphModel>
  </diagram>
  <diagram id="eqII5SoXXe0WhjRPoeKP" name="记录头信息">
    <mxGraphModel dx="782" dy="436" grid="1" gridSize="10" guides="1" tooltips="1" connect="1" arrows="1" fold="1" page="1" pageScale="1" pageWidth="827" pageHeight="1169" math="0" shadow="0">
      <root>
        <mxCell id="0" />
        <mxCell id="1" parent="0" />
        <mxCell id="EVxqAreGDlal3r51sEx5-1" value="" style="rounded=0;whiteSpace=wrap;html=1;fillColor=#1ba1e2;strokeColor=#006EAF;fontColor=#ffffff;" parent="1" vertex="1">
          <mxGeometry x="50" y="160" width="30" height="30" as="geometry" />
        </mxCell>
        <mxCell id="EVxqAreGDlal3r51sEx5-2" value="" style="rounded=0;whiteSpace=wrap;html=1;fillColor=#f0a30a;fontColor=#000000;strokeColor=#BD7000;" parent="1" vertex="1">
          <mxGeometry x="80" y="160" width="30" height="30" as="geometry" />
        </mxCell>
        <mxCell id="EVxqAreGDlal3r51sEx5-3" value="" style="rounded=0;whiteSpace=wrap;html=1;fillColor=#bac8d3;strokeColor=#23445d;" parent="1" vertex="1">
          <mxGeometry x="110" y="160" width="30" height="30" as="geometry" />
        </mxCell>
        <mxCell id="EVxqAreGDlal3r51sEx5-4" value="" style="rounded=0;whiteSpace=wrap;html=1;fillColor=#ffff88;strokeColor=#36393d;" parent="1" vertex="1">
          <mxGeometry x="140" y="160" width="30" height="30" as="geometry" />
        </mxCell>
        <mxCell id="EVxqAreGDlal3r51sEx5-5" value="" style="rounded=0;whiteSpace=wrap;html=1;fillColor=#60a917;strokeColor=#2D7600;fontColor=#ffffff;" parent="1" vertex="1">
          <mxGeometry x="170" y="160" width="30" height="30" as="geometry" />
        </mxCell>
        <mxCell id="EVxqAreGDlal3r51sEx5-6" value="" style="rounded=0;whiteSpace=wrap;html=1;fillColor=#60a917;fontColor=#ffffff;strokeColor=#2D7600;" parent="1" vertex="1">
          <mxGeometry x="200" y="160" width="30" height="30" as="geometry" />
        </mxCell>
        <mxCell id="EVxqAreGDlal3r51sEx5-7" value="" style="rounded=0;whiteSpace=wrap;html=1;fillColor=#60a917;fontColor=#ffffff;strokeColor=#2D7600;" parent="1" vertex="1">
          <mxGeometry x="230" y="160" width="30" height="30" as="geometry" />
        </mxCell>
        <mxCell id="EVxqAreGDlal3r51sEx5-8" value="" style="rounded=0;whiteSpace=wrap;html=1;fillColor=#60a917;fontColor=#ffffff;strokeColor=#2D7600;" parent="1" vertex="1">
          <mxGeometry x="260" y="160" width="30" height="30" as="geometry" />
        </mxCell>
        <mxCell id="EVxqAreGDlal3r51sEx5-9" value="" style="rounded=0;whiteSpace=wrap;html=1;fillColor=#0050ef;fontColor=#ffffff;strokeColor=#001DBC;" parent="1" vertex="1">
          <mxGeometry x="290" y="160" width="30" height="30" as="geometry" />
        </mxCell>
        <mxCell id="EVxqAreGDlal3r51sEx5-10" value="" style="rounded=0;whiteSpace=wrap;html=1;fillColor=#0050ef;fontColor=#ffffff;strokeColor=#001DBC;" parent="1" vertex="1">
          <mxGeometry x="320" y="160" width="30" height="30" as="geometry" />
        </mxCell>
        <mxCell id="EVxqAreGDlal3r51sEx5-11" value="" style="rounded=0;whiteSpace=wrap;html=1;fillColor=#0050ef;fontColor=#ffffff;strokeColor=#001DBC;" parent="1" vertex="1">
          <mxGeometry x="350" y="160" width="30" height="30" as="geometry" />
        </mxCell>
        <mxCell id="EVxqAreGDlal3r51sEx5-12" value="" style="rounded=0;whiteSpace=wrap;html=1;fillColor=#0050ef;fontColor=#ffffff;strokeColor=#001DBC;" parent="1" vertex="1">
          <mxGeometry x="380" y="160" width="30" height="30" as="geometry" />
        </mxCell>
        <mxCell id="EVxqAreGDlal3r51sEx5-13" value="" style="rounded=0;whiteSpace=wrap;html=1;fillColor=#0050ef;fontColor=#ffffff;strokeColor=#001DBC;" parent="1" vertex="1">
          <mxGeometry x="410" y="160" width="30" height="30" as="geometry" />
        </mxCell>
        <mxCell id="EVxqAreGDlal3r51sEx5-14" value="" style="rounded=0;whiteSpace=wrap;html=1;fillColor=#0050ef;fontColor=#ffffff;strokeColor=#001DBC;" parent="1" vertex="1">
          <mxGeometry x="440" y="160" width="30" height="30" as="geometry" />
        </mxCell>
        <mxCell id="EVxqAreGDlal3r51sEx5-15" value="" style="rounded=0;whiteSpace=wrap;html=1;fillColor=#0050ef;fontColor=#ffffff;strokeColor=#001DBC;" parent="1" vertex="1">
          <mxGeometry x="470" y="160" width="30" height="30" as="geometry" />
        </mxCell>
        <mxCell id="EVxqAreGDlal3r51sEx5-16" value="" style="rounded=0;whiteSpace=wrap;html=1;fillColor=#0050ef;fontColor=#ffffff;strokeColor=#001DBC;" parent="1" vertex="1">
          <mxGeometry x="500" y="160" width="30" height="30" as="geometry" />
        </mxCell>
        <mxCell id="EVxqAreGDlal3r51sEx5-17" value="" style="rounded=0;whiteSpace=wrap;html=1;fillColor=#0050ef;fontColor=#ffffff;strokeColor=#001DBC;" parent="1" vertex="1">
          <mxGeometry x="530" y="160" width="30" height="30" as="geometry" />
        </mxCell>
        <mxCell id="EVxqAreGDlal3r51sEx5-18" value="" style="rounded=0;whiteSpace=wrap;html=1;fillColor=#0050ef;fontColor=#ffffff;strokeColor=#001DBC;" parent="1" vertex="1">
          <mxGeometry x="560" y="160" width="30" height="30" as="geometry" />
        </mxCell>
        <mxCell id="EVxqAreGDlal3r51sEx5-19" value="" style="rounded=0;whiteSpace=wrap;html=1;fillColor=#0050ef;fontColor=#ffffff;strokeColor=#001DBC;" parent="1" vertex="1">
          <mxGeometry x="590" y="160" width="30" height="30" as="geometry" />
        </mxCell>
        <mxCell id="EVxqAreGDlal3r51sEx5-20" value="" style="rounded=0;whiteSpace=wrap;html=1;fillColor=#0050ef;fontColor=#ffffff;strokeColor=#001DBC;" parent="1" vertex="1">
          <mxGeometry x="620" y="160" width="30" height="30" as="geometry" />
        </mxCell>
        <mxCell id="EVxqAreGDlal3r51sEx5-21" value="" style="rounded=0;whiteSpace=wrap;html=1;fillColor=#0050ef;fontColor=#ffffff;strokeColor=#001DBC;" parent="1" vertex="1">
          <mxGeometry x="650" y="160" width="30" height="30" as="geometry" />
        </mxCell>
        <mxCell id="EVxqAreGDlal3r51sEx5-22" value="" style="rounded=0;whiteSpace=wrap;html=1;fillColor=#ffcc99;strokeColor=#36393d;" parent="1" vertex="1">
          <mxGeometry x="680" y="160" width="30" height="30" as="geometry" />
        </mxCell>
        <mxCell id="EVxqAreGDlal3r51sEx5-23" value="" style="rounded=0;whiteSpace=wrap;html=1;fillColor=#ffcc99;strokeColor=#36393d;" parent="1" vertex="1">
          <mxGeometry x="710" y="160" width="30" height="30" as="geometry" />
        </mxCell>
        <mxCell id="EVxqAreGDlal3r51sEx5-24" value="" style="rounded=0;whiteSpace=wrap;html=1;fillColor=#ffcc99;strokeColor=#36393d;" parent="1" vertex="1">
          <mxGeometry x="740" y="160" width="30" height="30" as="geometry" />
        </mxCell>
        <mxCell id="EVxqAreGDlal3r51sEx5-25" value="" style="rounded=0;whiteSpace=wrap;html=1;fillColor=#dae8fc;strokeColor=#6c8ebf;gradientColor=#7ea6e0;" parent="1" vertex="1">
          <mxGeometry x="770" y="160" width="30" height="30" as="geometry" />
        </mxCell>
        <mxCell id="EVxqAreGDlal3r51sEx5-26" value="" style="rounded=0;whiteSpace=wrap;html=1;fillColor=#dae8fc;strokeColor=#6c8ebf;gradientColor=#7ea6e0;" parent="1" vertex="1">
          <mxGeometry x="800" y="160" width="30" height="30" as="geometry" />
        </mxCell>
        <mxCell id="EVxqAreGDlal3r51sEx5-27" value="" style="rounded=0;whiteSpace=wrap;html=1;fillColor=#dae8fc;strokeColor=#6c8ebf;gradientColor=#7ea6e0;" parent="1" vertex="1">
          <mxGeometry x="830" y="160" width="30" height="30" as="geometry" />
        </mxCell>
        <mxCell id="EVxqAreGDlal3r51sEx5-28" value="" style="rounded=0;whiteSpace=wrap;html=1;fillColor=#dae8fc;strokeColor=#6c8ebf;gradientColor=#7ea6e0;" parent="1" vertex="1">
          <mxGeometry x="860" y="160" width="30" height="30" as="geometry" />
        </mxCell>
        <mxCell id="EVxqAreGDlal3r51sEx5-29" value="" style="rounded=0;whiteSpace=wrap;html=1;fillColor=#dae8fc;strokeColor=#6c8ebf;gradientColor=#7ea6e0;" parent="1" vertex="1">
          <mxGeometry x="890" y="160" width="30" height="30" as="geometry" />
        </mxCell>
        <mxCell id="EVxqAreGDlal3r51sEx5-30" value="" style="rounded=0;whiteSpace=wrap;html=1;fillColor=#dae8fc;strokeColor=#6c8ebf;gradientColor=#7ea6e0;" parent="1" vertex="1">
          <mxGeometry x="920" y="160" width="30" height="30" as="geometry" />
        </mxCell>
        <mxCell id="EVxqAreGDlal3r51sEx5-31" value="" style="rounded=0;whiteSpace=wrap;html=1;fillColor=#dae8fc;strokeColor=#6c8ebf;gradientColor=#7ea6e0;" parent="1" vertex="1">
          <mxGeometry x="950" y="160" width="30" height="30" as="geometry" />
        </mxCell>
        <mxCell id="EVxqAreGDlal3r51sEx5-32" value="" style="rounded=0;whiteSpace=wrap;html=1;fillColor=#dae8fc;strokeColor=#6c8ebf;gradientColor=#7ea6e0;" parent="1" vertex="1">
          <mxGeometry x="980" y="160" width="30" height="30" as="geometry" />
        </mxCell>
        <mxCell id="EVxqAreGDlal3r51sEx5-33" value="" style="rounded=0;whiteSpace=wrap;html=1;fillColor=#dae8fc;strokeColor=#6c8ebf;gradientColor=#7ea6e0;" parent="1" vertex="1">
          <mxGeometry x="1010" y="160" width="30" height="30" as="geometry" />
        </mxCell>
        <mxCell id="EVxqAreGDlal3r51sEx5-34" value="" style="rounded=0;whiteSpace=wrap;html=1;fillColor=#dae8fc;strokeColor=#6c8ebf;gradientColor=#7ea6e0;" parent="1" vertex="1">
          <mxGeometry x="1040" y="160" width="30" height="30" as="geometry" />
        </mxCell>
        <mxCell id="EVxqAreGDlal3r51sEx5-35" value="" style="rounded=0;whiteSpace=wrap;html=1;fillColor=#dae8fc;strokeColor=#6c8ebf;gradientColor=#7ea6e0;" parent="1" vertex="1">
          <mxGeometry x="1070" y="160" width="30" height="30" as="geometry" />
        </mxCell>
        <mxCell id="EVxqAreGDlal3r51sEx5-36" value="" style="rounded=0;whiteSpace=wrap;html=1;fillColor=#dae8fc;strokeColor=#6c8ebf;gradientColor=#7ea6e0;" parent="1" vertex="1">
          <mxGeometry x="1100" y="160" width="30" height="30" as="geometry" />
        </mxCell>
        <mxCell id="EVxqAreGDlal3r51sEx5-37" value="" style="rounded=0;whiteSpace=wrap;html=1;fillColor=#dae8fc;strokeColor=#6c8ebf;gradientColor=#7ea6e0;" parent="1" vertex="1">
          <mxGeometry x="1130" y="160" width="30" height="30" as="geometry" />
        </mxCell>
        <mxCell id="EVxqAreGDlal3r51sEx5-38" value="" style="rounded=0;whiteSpace=wrap;html=1;fillColor=#dae8fc;strokeColor=#6c8ebf;gradientColor=#7ea6e0;" parent="1" vertex="1">
          <mxGeometry x="1160" y="160" width="30" height="30" as="geometry" />
        </mxCell>
        <mxCell id="EVxqAreGDlal3r51sEx5-39" value="" style="rounded=0;whiteSpace=wrap;html=1;fillColor=#dae8fc;strokeColor=#6c8ebf;gradientColor=#7ea6e0;" parent="1" vertex="1">
          <mxGeometry x="1190" y="160" width="30" height="30" as="geometry" />
        </mxCell>
        <mxCell id="EVxqAreGDlal3r51sEx5-40" value="" style="rounded=0;whiteSpace=wrap;html=1;fillColor=#dae8fc;strokeColor=#6c8ebf;gradientColor=#7ea6e0;" parent="1" vertex="1">
          <mxGeometry x="1220" y="160" width="30" height="30" as="geometry" />
        </mxCell>
        <mxCell id="EVxqAreGDlal3r51sEx5-45" value="" style="endArrow=classic;html=1;rounded=0;entryX=0.5;entryY=1;entryDx=0;entryDy=0;" parent="1" target="EVxqAreGDlal3r51sEx5-1" edge="1">
          <mxGeometry width="50" height="50" relative="1" as="geometry">
            <mxPoint x="65" y="230" as="sourcePoint" />
            <mxPoint x="100" y="220" as="targetPoint" />
          </mxGeometry>
        </mxCell>
        <mxCell id="CT32xxfMqP9l3eaBK1mH-2" value="" style="endArrow=classic;html=1;rounded=0;entryX=0.5;entryY=1;entryDx=0;entryDy=0;" parent="1" edge="1">
          <mxGeometry width="50" height="50" relative="1" as="geometry">
            <mxPoint x="95" y="260" as="sourcePoint" />
            <mxPoint x="94.5" y="190" as="targetPoint" />
          </mxGeometry>
        </mxCell>
        <mxCell id="CT32xxfMqP9l3eaBK1mH-3" value="" style="endArrow=classic;html=1;rounded=0;entryX=0.5;entryY=1;entryDx=0;entryDy=0;" parent="1" edge="1">
          <mxGeometry width="50" height="50" relative="1" as="geometry">
            <mxPoint x="125" y="290" as="sourcePoint" />
            <mxPoint x="124.5" y="190" as="targetPoint" />
          </mxGeometry>
        </mxCell>
        <mxCell id="CT32xxfMqP9l3eaBK1mH-5" value="" style="endArrow=classic;html=1;rounded=0;entryX=0.5;entryY=1;entryDx=0;entryDy=0;fillColor=#ffff88;strokeColor=#36393d;" parent="1" edge="1">
          <mxGeometry width="50" height="50" relative="1" as="geometry">
            <mxPoint x="155" y="310" as="sourcePoint" />
            <mxPoint x="154.5" y="190" as="targetPoint" />
          </mxGeometry>
        </mxCell>
        <mxCell id="CT32xxfMqP9l3eaBK1mH-6" value="&lt;font style=&quot;font-size: 14px;&quot;&gt;预留位1&lt;/font&gt;" style="text;html=1;strokeColor=none;fillColor=none;align=center;verticalAlign=middle;whiteSpace=wrap;rounded=0;" parent="1" vertex="1">
          <mxGeometry x="29" y="223" width="60" height="30" as="geometry" />
        </mxCell>
        <mxCell id="CT32xxfMqP9l3eaBK1mH-7" value="&lt;font style=&quot;font-size: 14px;&quot;&gt;预留位2&lt;/font&gt;" style="text;html=1;strokeColor=none;fillColor=none;align=center;verticalAlign=middle;whiteSpace=wrap;rounded=0;" parent="1" vertex="1">
          <mxGeometry x="63" y="254" width="60" height="30" as="geometry" />
        </mxCell>
        <mxCell id="CT32xxfMqP9l3eaBK1mH-8" value="&lt;font style=&quot;font-size: 14px;&quot;&gt;delete_mask&lt;/font&gt;" style="text;html=1;strokeColor=none;fillColor=none;align=center;verticalAlign=middle;whiteSpace=wrap;rounded=0;" parent="1" vertex="1">
          <mxGeometry x="80" y="284" width="60" height="30" as="geometry" />
        </mxCell>
        <mxCell id="CT32xxfMqP9l3eaBK1mH-10" value="&lt;font style=&quot;font-size: 14px;&quot;&gt;n_owned&lt;/font&gt;" style="text;html=1;strokeColor=none;fillColor=none;align=center;verticalAlign=middle;whiteSpace=wrap;rounded=0;" parent="1" vertex="1">
          <mxGeometry x="200" y="214" width="60" height="30" as="geometry" />
        </mxCell>
        <mxCell id="CT32xxfMqP9l3eaBK1mH-11" value="" style="endArrow=none;html=1;rounded=0;entryX=0;entryY=1;entryDx=0;entryDy=0;" parent="1" target="EVxqAreGDlal3r51sEx5-5" edge="1">
          <mxGeometry width="50" height="50" relative="1" as="geometry">
            <mxPoint x="170" y="260" as="sourcePoint" />
            <mxPoint x="230" y="213" as="targetPoint" />
          </mxGeometry>
        </mxCell>
        <mxCell id="VpoN3e_ZGetXBJ65YJ8q-1" value="" style="endArrow=none;html=1;rounded=0;entryX=0;entryY=1;entryDx=0;entryDy=0;" parent="1" edge="1">
          <mxGeometry width="50" height="50" relative="1" as="geometry">
            <mxPoint x="290" y="260" as="sourcePoint" />
            <mxPoint x="290" y="190" as="targetPoint" />
          </mxGeometry>
        </mxCell>
        <mxCell id="VpoN3e_ZGetXBJ65YJ8q-2" value="" style="endArrow=classic;startArrow=classic;html=1;rounded=0;" parent="1" edge="1">
          <mxGeometry width="50" height="50" relative="1" as="geometry">
            <mxPoint x="170" y="240" as="sourcePoint" />
            <mxPoint x="290" y="240" as="targetPoint" />
          </mxGeometry>
        </mxCell>
        <mxCell id="VpoN3e_ZGetXBJ65YJ8q-3" value="&lt;font style=&quot;font-size: 14px;&quot;&gt;heap_no&lt;/font&gt;" style="text;html=1;strokeColor=none;fillColor=none;align=center;verticalAlign=middle;whiteSpace=wrap;rounded=0;" parent="1" vertex="1">
          <mxGeometry x="450" y="214" width="60" height="30" as="geometry" />
        </mxCell>
        <mxCell id="VpoN3e_ZGetXBJ65YJ8q-4" value="&lt;font style=&quot;font-size: 14px;&quot;&gt;min_rec_mask&lt;/font&gt;" style="text;html=1;strokeColor=none;fillColor=none;align=center;verticalAlign=middle;whiteSpace=wrap;rounded=0;" parent="1" vertex="1">
          <mxGeometry x="122" y="304" width="60" height="30" as="geometry" />
        </mxCell>
        <mxCell id="VpoN3e_ZGetXBJ65YJ8q-5" value="" style="endArrow=none;html=1;rounded=0;entryX=0;entryY=1;entryDx=0;entryDy=0;" parent="1" edge="1">
          <mxGeometry width="50" height="50" relative="1" as="geometry">
            <mxPoint x="680" y="260" as="sourcePoint" />
            <mxPoint x="680" y="190" as="targetPoint" />
          </mxGeometry>
        </mxCell>
        <mxCell id="VpoN3e_ZGetXBJ65YJ8q-6" value="" style="endArrow=classic;startArrow=classic;html=1;rounded=0;" parent="1" edge="1">
          <mxGeometry width="50" height="50" relative="1" as="geometry">
            <mxPoint x="290" y="239.5" as="sourcePoint" />
            <mxPoint x="680" y="240" as="targetPoint" />
          </mxGeometry>
        </mxCell>
        <mxCell id="VpoN3e_ZGetXBJ65YJ8q-7" value="" style="endArrow=none;html=1;rounded=0;entryX=0;entryY=1;entryDx=0;entryDy=0;" parent="1" edge="1">
          <mxGeometry width="50" height="50" relative="1" as="geometry">
            <mxPoint x="770" y="260" as="sourcePoint" />
            <mxPoint x="770" y="190" as="targetPoint" />
          </mxGeometry>
        </mxCell>
        <mxCell id="VpoN3e_ZGetXBJ65YJ8q-8" value="" style="endArrow=classic;startArrow=classic;html=1;rounded=0;" parent="1" edge="1">
          <mxGeometry width="50" height="50" relative="1" as="geometry">
            <mxPoint x="680" y="240" as="sourcePoint" />
            <mxPoint x="770" y="240" as="targetPoint" />
          </mxGeometry>
        </mxCell>
        <mxCell id="VpoN3e_ZGetXBJ65YJ8q-9" value="&lt;font style=&quot;font-size: 14px;&quot;&gt;next_record&lt;/font&gt;" style="text;html=1;strokeColor=none;fillColor=none;align=center;verticalAlign=middle;whiteSpace=wrap;rounded=0;" parent="1" vertex="1">
          <mxGeometry x="980" y="214" width="80" height="30" as="geometry" />
        </mxCell>
        <mxCell id="VpoN3e_ZGetXBJ65YJ8q-10" value="" style="endArrow=none;html=1;rounded=0;entryX=0;entryY=1;entryDx=0;entryDy=0;" parent="1" edge="1">
          <mxGeometry width="50" height="50" relative="1" as="geometry">
            <mxPoint x="1250" y="260" as="sourcePoint" />
            <mxPoint x="1250" y="190" as="targetPoint" />
          </mxGeometry>
        </mxCell>
        <mxCell id="VpoN3e_ZGetXBJ65YJ8q-11" value="" style="endArrow=classic;startArrow=classic;html=1;rounded=0;" parent="1" edge="1">
          <mxGeometry width="50" height="50" relative="1" as="geometry">
            <mxPoint x="770" y="240.5" as="sourcePoint" />
            <mxPoint x="1250" y="241" as="targetPoint" />
          </mxGeometry>
        </mxCell>
        <mxCell id="VpoN3e_ZGetXBJ65YJ8q-12" value="&lt;font style=&quot;font-size: 14px;&quot;&gt;record type&lt;/font&gt;" style="text;html=1;strokeColor=none;fillColor=none;align=center;verticalAlign=middle;whiteSpace=wrap;rounded=0;" parent="1" vertex="1">
          <mxGeometry x="685" y="214" width="80" height="30" as="geometry" />
        </mxCell>
      </root>
    </mxGraphModel>
  </diagram>
  <diagram id="JwLZ1fvicJ3QOaEskNdY" name="Redundant行格式">
    <mxGraphModel dx="782" dy="436" grid="1" gridSize="10" guides="1" tooltips="1" connect="1" arrows="1" fold="1" page="1" pageScale="1" pageWidth="827" pageHeight="1169" math="0" shadow="0">
      <root>
        <mxCell id="0" />
        <mxCell id="1" parent="0" />
        <mxCell id="DxK8VBxuR78rZ6DOGMyw-1" value="字段长度偏移列表" style="rounded=0;whiteSpace=wrap;html=1;fillColor=#1ba1e2;strokeColor=#006EAF;fontColor=#ffffff;" parent="1" vertex="1">
          <mxGeometry x="110" y="190" width="120" height="40" as="geometry" />
        </mxCell>
        <mxCell id="DxK8VBxuR78rZ6DOGMyw-3" value="记录头信息" style="rounded=0;whiteSpace=wrap;html=1;fillColor=#1ba1e2;strokeColor=#006EAF;fontColor=#ffffff;" parent="1" vertex="1">
          <mxGeometry x="230" y="190" width="90" height="40" as="geometry" />
        </mxCell>
        <mxCell id="DxK8VBxuR78rZ6DOGMyw-4" value="列1的值" style="rounded=0;whiteSpace=wrap;html=1;fillColor=#fad7ac;strokeColor=#b46504;" parent="1" vertex="1">
          <mxGeometry x="560" y="190" width="80" height="40" as="geometry" />
        </mxCell>
        <mxCell id="DxK8VBxuR78rZ6DOGMyw-5" value="..." style="rounded=0;whiteSpace=wrap;html=1;fillColor=#fad7ac;strokeColor=#b46504;" parent="1" vertex="1">
          <mxGeometry x="640" y="190" width="60" height="40" as="geometry" />
        </mxCell>
        <mxCell id="DxK8VBxuR78rZ6DOGMyw-6" value="列n的值" style="rounded=0;whiteSpace=wrap;html=1;fillColor=#fad7ac;strokeColor=#b46504;" parent="1" vertex="1">
          <mxGeometry x="700" y="190" width="80" height="40" as="geometry" />
        </mxCell>
        <mxCell id="DxK8VBxuR78rZ6DOGMyw-7" value="" style="endArrow=none;html=1;rounded=0;" parent="1" edge="1">
          <mxGeometry width="50" height="50" relative="1" as="geometry">
            <mxPoint x="110" y="190" as="sourcePoint" />
            <mxPoint x="110" y="120" as="targetPoint" />
          </mxGeometry>
        </mxCell>
        <mxCell id="DxK8VBxuR78rZ6DOGMyw-8" value="" style="endArrow=none;html=1;rounded=0;" parent="1" edge="1">
          <mxGeometry width="50" height="50" relative="1" as="geometry">
            <mxPoint x="560" y="190" as="sourcePoint" />
            <mxPoint x="560" y="120" as="targetPoint" />
          </mxGeometry>
        </mxCell>
        <mxCell id="DxK8VBxuR78rZ6DOGMyw-9" value="" style="endArrow=none;html=1;rounded=0;" parent="1" edge="1">
          <mxGeometry width="50" height="50" relative="1" as="geometry">
            <mxPoint x="320" y="190" as="sourcePoint" />
            <mxPoint x="320" y="120" as="targetPoint" />
          </mxGeometry>
        </mxCell>
        <mxCell id="DxK8VBxuR78rZ6DOGMyw-10" value="" style="endArrow=classic;startArrow=classic;html=1;rounded=0;" parent="1" edge="1">
          <mxGeometry width="50" height="50" relative="1" as="geometry">
            <mxPoint x="110" y="140" as="sourcePoint" />
            <mxPoint x="320" y="137" as="targetPoint" />
          </mxGeometry>
        </mxCell>
        <mxCell id="DxK8VBxuR78rZ6DOGMyw-11" value="&lt;font style=&quot;font-size: 14px;&quot;&gt;&amp;nbsp;记录的额外信息&amp;nbsp;&lt;/font&gt;" style="edgeLabel;html=1;align=center;verticalAlign=middle;resizable=0;points=[];" parent="DxK8VBxuR78rZ6DOGMyw-10" vertex="1" connectable="0">
          <mxGeometry x="-0.0889" y="1" relative="1" as="geometry">
            <mxPoint as="offset" />
          </mxGeometry>
        </mxCell>
        <mxCell id="DxK8VBxuR78rZ6DOGMyw-12" value="" style="endArrow=classic;startArrow=classic;html=1;rounded=0;" parent="1" edge="1">
          <mxGeometry width="50" height="50" relative="1" as="geometry">
            <mxPoint x="560" y="137" as="sourcePoint" />
            <mxPoint x="780" y="137" as="targetPoint" />
          </mxGeometry>
        </mxCell>
        <mxCell id="DxK8VBxuR78rZ6DOGMyw-13" value="&amp;nbsp;记录的真实数据&amp;nbsp;" style="edgeLabel;html=1;align=center;verticalAlign=middle;resizable=0;points=[];fontSize=14;" parent="DxK8VBxuR78rZ6DOGMyw-12" vertex="1" connectable="0">
          <mxGeometry x="-0.1758" y="2" relative="1" as="geometry">
            <mxPoint as="offset" />
          </mxGeometry>
        </mxCell>
        <mxCell id="DxK8VBxuR78rZ6DOGMyw-14" value="" style="rounded=0;whiteSpace=wrap;html=1;fillColor=#fff2cc;strokeColor=#d6b656;" parent="1" vertex="1">
          <mxGeometry x="320" y="190" width="80" height="40" as="geometry" />
        </mxCell>
        <mxCell id="DxK8VBxuR78rZ6DOGMyw-15" value="" style="rounded=0;whiteSpace=wrap;html=1;fillColor=#fff2cc;strokeColor=#d6b656;" parent="1" vertex="1">
          <mxGeometry x="400" y="190" width="70" height="40" as="geometry" />
        </mxCell>
        <mxCell id="DxK8VBxuR78rZ6DOGMyw-16" value="" style="rounded=0;whiteSpace=wrap;html=1;fillColor=#fff2cc;strokeColor=#d6b656;" parent="1" vertex="1">
          <mxGeometry x="470" y="190" width="90" height="40" as="geometry" />
        </mxCell>
        <mxCell id="DxK8VBxuR78rZ6DOGMyw-17" value="" style="endArrow=none;html=1;rounded=0;" parent="1" edge="1">
          <mxGeometry width="50" height="50" relative="1" as="geometry">
            <mxPoint x="780" y="190" as="sourcePoint" />
            <mxPoint x="780" y="120" as="targetPoint" />
          </mxGeometry>
        </mxCell>
        <mxCell id="DxK8VBxuR78rZ6DOGMyw-18" value="" style="endArrow=classic;startArrow=classic;html=1;rounded=0;" parent="1" edge="1">
          <mxGeometry width="50" height="50" relative="1" as="geometry">
            <mxPoint x="320" y="137" as="sourcePoint" />
            <mxPoint x="560" y="137" as="targetPoint" />
          </mxGeometry>
        </mxCell>
        <mxCell id="DxK8VBxuR78rZ6DOGMyw-19" value="&amp;nbsp;隐藏列&amp;nbsp;" style="edgeLabel;html=1;align=center;verticalAlign=middle;resizable=0;points=[];" parent="DxK8VBxuR78rZ6DOGMyw-18" vertex="1" connectable="0">
          <mxGeometry x="-0.1852" y="2" relative="1" as="geometry">
            <mxPoint as="offset" />
          </mxGeometry>
        </mxCell>
        <mxCell id="DxK8VBxuR78rZ6DOGMyw-20" value="&lt;font style=&quot;font-size: 12px;&quot;&gt;DB_ROW_ID&lt;/font&gt;" style="text;html=1;strokeColor=none;fillColor=none;align=center;verticalAlign=middle;whiteSpace=wrap;rounded=0;fontSize=12;" parent="1" vertex="1">
          <mxGeometry x="330" y="195" width="60" height="30" as="geometry" />
        </mxCell>
        <mxCell id="DxK8VBxuR78rZ6DOGMyw-21" value="DB_TRX_ID" style="text;html=1;strokeColor=none;fillColor=none;align=center;verticalAlign=middle;whiteSpace=wrap;rounded=0;fontSize=12;" parent="1" vertex="1">
          <mxGeometry x="406" y="195" width="60" height="30" as="geometry" />
        </mxCell>
        <mxCell id="DxK8VBxuR78rZ6DOGMyw-22" value="DB_ROLL_PTR" style="text;html=1;strokeColor=none;fillColor=none;align=center;verticalAlign=middle;whiteSpace=wrap;rounded=0;fontSize=12;" parent="1" vertex="1">
          <mxGeometry x="485" y="195" width="60" height="30" as="geometry" />
        </mxCell>
        <mxCell id="DxK8VBxuR78rZ6DOGMyw-23" value="row_id" style="text;html=1;strokeColor=none;fillColor=none;align=center;verticalAlign=middle;whiteSpace=wrap;rounded=0;fontSize=12;" parent="1" vertex="1">
          <mxGeometry x="330" y="165" width="60" height="30" as="geometry" />
        </mxCell>
        <mxCell id="DxK8VBxuR78rZ6DOGMyw-24" value="transaction_id" style="text;html=1;strokeColor=none;fillColor=none;align=center;verticalAlign=middle;whiteSpace=wrap;rounded=0;fontSize=12;" parent="1" vertex="1">
          <mxGeometry x="406" y="165" width="60" height="30" as="geometry" />
        </mxCell>
        <mxCell id="DxK8VBxuR78rZ6DOGMyw-25" value="roll_pointer" style="text;html=1;strokeColor=none;fillColor=none;align=center;verticalAlign=middle;whiteSpace=wrap;rounded=0;fontSize=12;" parent="1" vertex="1">
          <mxGeometry x="490" y="165" width="60" height="30" as="geometry" />
        </mxCell>
      </root>
    </mxGraphModel>
  </diagram>
  <diagram id="gULv5FHvPCPrvgNwRsk-" name="行溢出数据">
    <mxGraphModel dx="782" dy="436" grid="1" gridSize="10" guides="1" tooltips="1" connect="1" arrows="1" fold="1" page="1" pageScale="1" pageWidth="827" pageHeight="1169" math="0" shadow="0">
      <root>
        <mxCell id="0" />
        <mxCell id="1" parent="0" />
        <mxCell id="K4ZNSQIKUtxvHpDYttM6-1" value="变长字段长度列表" style="rounded=0;whiteSpace=wrap;html=1;fillColor=#1ba1e2;strokeColor=#006EAF;fontColor=#ffffff;" parent="1" vertex="1">
          <mxGeometry x="20" y="190" width="120" height="40" as="geometry" />
        </mxCell>
        <mxCell id="K4ZNSQIKUtxvHpDYttM6-2" value="NULL 值列表" style="rounded=0;whiteSpace=wrap;html=1;fillColor=#60a917;fontColor=#ffffff;strokeColor=#2D7600;" parent="1" vertex="1">
          <mxGeometry x="140" y="190" width="90" height="40" as="geometry" />
        </mxCell>
        <mxCell id="K4ZNSQIKUtxvHpDYttM6-3" value="记录头信息" style="rounded=0;whiteSpace=wrap;html=1;fillColor=#1ba1e2;strokeColor=#006EAF;fontColor=#ffffff;" parent="1" vertex="1">
          <mxGeometry x="230" y="190" width="90" height="40" as="geometry" />
        </mxCell>
        <mxCell id="K4ZNSQIKUtxvHpDYttM6-4" value="&lt;font color=&quot;#ff0000&quot;&gt;768&lt;/font&gt;字节数据" style="rounded=0;whiteSpace=wrap;html=1;fillColor=#fad7ac;strokeColor=#b46504;" parent="1" vertex="1">
          <mxGeometry x="560" y="190" width="80" height="40" as="geometry" />
        </mxCell>
        <mxCell id="K4ZNSQIKUtxvHpDYttM6-5" value="&lt;font color=&quot;#ff0000&quot;&gt;20&lt;/font&gt;字节其他页数据地址" style="rounded=0;whiteSpace=wrap;html=1;fillColor=#fad7ac;strokeColor=#b46504;" parent="1" vertex="1">
          <mxGeometry x="640" y="190" width="70" height="40" as="geometry" />
        </mxCell>
        <mxCell id="K4ZNSQIKUtxvHpDYttM6-6" value="列n的值" style="rounded=0;whiteSpace=wrap;html=1;fillColor=#fad7ac;strokeColor=#b46504;" parent="1" vertex="1">
          <mxGeometry x="710" y="190" width="80" height="40" as="geometry" />
        </mxCell>
        <mxCell id="K4ZNSQIKUtxvHpDYttM6-7" value="" style="endArrow=none;html=1;rounded=0;" parent="1" edge="1">
          <mxGeometry width="50" height="50" relative="1" as="geometry">
            <mxPoint x="20" y="190" as="sourcePoint" />
            <mxPoint x="20" y="120" as="targetPoint" />
          </mxGeometry>
        </mxCell>
        <mxCell id="K4ZNSQIKUtxvHpDYttM6-8" value="" style="endArrow=none;html=1;rounded=0;" parent="1" edge="1">
          <mxGeometry width="50" height="50" relative="1" as="geometry">
            <mxPoint x="560" y="190" as="sourcePoint" />
            <mxPoint x="560" y="120" as="targetPoint" />
          </mxGeometry>
        </mxCell>
        <mxCell id="K4ZNSQIKUtxvHpDYttM6-9" value="" style="endArrow=none;html=1;rounded=0;" parent="1" edge="1">
          <mxGeometry width="50" height="50" relative="1" as="geometry">
            <mxPoint x="320" y="190" as="sourcePoint" />
            <mxPoint x="320" y="120" as="targetPoint" />
          </mxGeometry>
        </mxCell>
        <mxCell id="K4ZNSQIKUtxvHpDYttM6-10" value="" style="endArrow=classic;startArrow=classic;html=1;rounded=0;" parent="1" edge="1">
          <mxGeometry width="50" height="50" relative="1" as="geometry">
            <mxPoint x="20" y="137" as="sourcePoint" />
            <mxPoint x="320" y="137" as="targetPoint" />
          </mxGeometry>
        </mxCell>
        <mxCell id="K4ZNSQIKUtxvHpDYttM6-11" value="&lt;font style=&quot;font-size: 14px;&quot;&gt;&amp;nbsp;记录的额外信息&amp;nbsp;&lt;/font&gt;" style="edgeLabel;html=1;align=center;verticalAlign=middle;resizable=0;points=[];" parent="K4ZNSQIKUtxvHpDYttM6-10" vertex="1" connectable="0">
          <mxGeometry x="-0.0889" y="1" relative="1" as="geometry">
            <mxPoint as="offset" />
          </mxGeometry>
        </mxCell>
        <mxCell id="K4ZNSQIKUtxvHpDYttM6-12" value="" style="endArrow=classic;startArrow=classic;html=1;rounded=0;" parent="1" edge="1">
          <mxGeometry width="50" height="50" relative="1" as="geometry">
            <mxPoint x="560" y="137" as="sourcePoint" />
            <mxPoint x="790" y="137" as="targetPoint" />
          </mxGeometry>
        </mxCell>
        <mxCell id="K4ZNSQIKUtxvHpDYttM6-13" value="&amp;nbsp;记录的真实数据&amp;nbsp;" style="edgeLabel;html=1;align=center;verticalAlign=middle;resizable=0;points=[];fontSize=14;" parent="K4ZNSQIKUtxvHpDYttM6-12" vertex="1" connectable="0">
          <mxGeometry x="-0.1758" y="2" relative="1" as="geometry">
            <mxPoint as="offset" />
          </mxGeometry>
        </mxCell>
        <mxCell id="K4ZNSQIKUtxvHpDYttM6-14" value="" style="rounded=0;whiteSpace=wrap;html=1;fillColor=#fff2cc;strokeColor=#d6b656;" parent="1" vertex="1">
          <mxGeometry x="320" y="190" width="80" height="40" as="geometry" />
        </mxCell>
        <mxCell id="K4ZNSQIKUtxvHpDYttM6-15" value="" style="rounded=0;whiteSpace=wrap;html=1;fillColor=#fff2cc;strokeColor=#d6b656;" parent="1" vertex="1">
          <mxGeometry x="400" y="190" width="70" height="40" as="geometry" />
        </mxCell>
        <mxCell id="K4ZNSQIKUtxvHpDYttM6-16" value="" style="rounded=0;whiteSpace=wrap;html=1;fillColor=#fff2cc;strokeColor=#d6b656;" parent="1" vertex="1">
          <mxGeometry x="470" y="190" width="90" height="40" as="geometry" />
        </mxCell>
        <mxCell id="K4ZNSQIKUtxvHpDYttM6-17" value="" style="endArrow=none;html=1;rounded=0;" parent="1" edge="1">
          <mxGeometry width="50" height="50" relative="1" as="geometry">
            <mxPoint x="790" y="190" as="sourcePoint" />
            <mxPoint x="790" y="120" as="targetPoint" />
          </mxGeometry>
        </mxCell>
        <mxCell id="K4ZNSQIKUtxvHpDYttM6-18" value="" style="endArrow=classic;startArrow=classic;html=1;rounded=0;" parent="1" edge="1">
          <mxGeometry width="50" height="50" relative="1" as="geometry">
            <mxPoint x="320" y="137" as="sourcePoint" />
            <mxPoint x="560" y="137" as="targetPoint" />
          </mxGeometry>
        </mxCell>
        <mxCell id="K4ZNSQIKUtxvHpDYttM6-19" value="&amp;nbsp;隐藏列&amp;nbsp;" style="edgeLabel;html=1;align=center;verticalAlign=middle;resizable=0;points=[];" parent="K4ZNSQIKUtxvHpDYttM6-18" vertex="1" connectable="0">
          <mxGeometry x="-0.1852" y="2" relative="1" as="geometry">
            <mxPoint as="offset" />
          </mxGeometry>
        </mxCell>
        <mxCell id="K4ZNSQIKUtxvHpDYttM6-20" value="&lt;font style=&quot;font-size: 12px;&quot;&gt;DB_ROW_ID&lt;/font&gt;" style="text;html=1;strokeColor=none;fillColor=none;align=center;verticalAlign=middle;whiteSpace=wrap;rounded=0;fontSize=12;" parent="1" vertex="1">
          <mxGeometry x="330" y="195" width="60" height="30" as="geometry" />
        </mxCell>
        <mxCell id="K4ZNSQIKUtxvHpDYttM6-21" value="DB_TRX_ID" style="text;html=1;strokeColor=none;fillColor=none;align=center;verticalAlign=middle;whiteSpace=wrap;rounded=0;fontSize=12;" parent="1" vertex="1">
          <mxGeometry x="406" y="195" width="60" height="30" as="geometry" />
        </mxCell>
        <mxCell id="K4ZNSQIKUtxvHpDYttM6-22" value="DB_ROLL_PTR" style="text;html=1;strokeColor=none;fillColor=none;align=center;verticalAlign=middle;whiteSpace=wrap;rounded=0;fontSize=12;" parent="1" vertex="1">
          <mxGeometry x="485" y="195" width="60" height="30" as="geometry" />
        </mxCell>
        <mxCell id="K4ZNSQIKUtxvHpDYttM6-23" value="row_id" style="text;html=1;strokeColor=none;fillColor=none;align=center;verticalAlign=middle;whiteSpace=wrap;rounded=0;fontSize=12;" parent="1" vertex="1">
          <mxGeometry x="330" y="165" width="60" height="30" as="geometry" />
        </mxCell>
        <mxCell id="K4ZNSQIKUtxvHpDYttM6-24" value="transaction_id" style="text;html=1;strokeColor=none;fillColor=none;align=center;verticalAlign=middle;whiteSpace=wrap;rounded=0;fontSize=12;" parent="1" vertex="1">
          <mxGeometry x="406" y="165" width="60" height="30" as="geometry" />
        </mxCell>
        <mxCell id="K4ZNSQIKUtxvHpDYttM6-25" value="roll_pointer" style="text;html=1;strokeColor=none;fillColor=none;align=center;verticalAlign=middle;whiteSpace=wrap;rounded=0;fontSize=12;" parent="1" vertex="1">
          <mxGeometry x="490" y="165" width="60" height="30" as="geometry" />
        </mxCell>
        <mxCell id="K4ZNSQIKUtxvHpDYttM6-26" value="" style="endArrow=none;html=1;rounded=0;" parent="1" edge="1">
          <mxGeometry width="50" height="50" relative="1" as="geometry">
            <mxPoint x="710" y="190" as="sourcePoint" />
            <mxPoint x="710" y="170" as="targetPoint" />
          </mxGeometry>
        </mxCell>
        <mxCell id="K4ZNSQIKUtxvHpDYttM6-27" value="" style="endArrow=classic;startArrow=classic;html=1;rounded=0;" parent="1" edge="1">
          <mxGeometry width="50" height="50" relative="1" as="geometry">
            <mxPoint x="560" y="171" as="sourcePoint" />
            <mxPoint x="710" y="171" as="targetPoint" />
          </mxGeometry>
        </mxCell>
        <mxCell id="K4ZNSQIKUtxvHpDYttM6-28" value="&amp;nbsp;某一列的数据&amp;nbsp;" style="edgeLabel;html=1;align=center;verticalAlign=middle;resizable=0;points=[];fontSize=12;" parent="K4ZNSQIKUtxvHpDYttM6-27" vertex="1" connectable="0">
          <mxGeometry x="-0.36" y="-1" relative="1" as="geometry">
            <mxPoint x="22" as="offset" />
          </mxGeometry>
        </mxCell>
      </root>
    </mxGraphModel>
  </diagram>
  <diagram id="60McVPWSwZsFY6iQEjwg" name="Dynamic、Compressed行溢出">
    <mxGraphModel dx="782" dy="436" grid="1" gridSize="10" guides="1" tooltips="1" connect="1" arrows="1" fold="1" page="1" pageScale="1" pageWidth="827" pageHeight="1169" math="0" shadow="0">
      <root>
        <mxCell id="0" />
        <mxCell id="1" parent="0" />
        <mxCell id="Jjg69p7oEHA8YwTZv-Xe-1" value="变长字段长度列表" style="rounded=0;whiteSpace=wrap;html=1;fillColor=#1ba1e2;strokeColor=#006EAF;fontColor=#ffffff;" parent="1" vertex="1">
          <mxGeometry x="20" y="190" width="120" height="40" as="geometry" />
        </mxCell>
        <mxCell id="Jjg69p7oEHA8YwTZv-Xe-2" value="NULL 值列表" style="rounded=0;whiteSpace=wrap;html=1;fillColor=#60a917;fontColor=#ffffff;strokeColor=#2D7600;" parent="1" vertex="1">
          <mxGeometry x="140" y="190" width="90" height="40" as="geometry" />
        </mxCell>
        <mxCell id="Jjg69p7oEHA8YwTZv-Xe-3" value="记录头信息" style="rounded=0;whiteSpace=wrap;html=1;fillColor=#1ba1e2;strokeColor=#006EAF;fontColor=#ffffff;" parent="1" vertex="1">
          <mxGeometry x="230" y="190" width="90" height="40" as="geometry" />
        </mxCell>
        <mxCell id="Jjg69p7oEHA8YwTZv-Xe-5" value="&lt;font color=&quot;#ff0000&quot;&gt;20&lt;/font&gt;字节其他页数据地址" style="rounded=0;whiteSpace=wrap;html=1;fillColor=#fad7ac;strokeColor=#b46504;" parent="1" vertex="1">
          <mxGeometry x="560" y="190" width="150" height="40" as="geometry" />
        </mxCell>
        <mxCell id="Jjg69p7oEHA8YwTZv-Xe-6" value="列n的值" style="rounded=0;whiteSpace=wrap;html=1;fillColor=#fad7ac;strokeColor=#b46504;" parent="1" vertex="1">
          <mxGeometry x="710" y="190" width="80" height="40" as="geometry" />
        </mxCell>
        <mxCell id="Jjg69p7oEHA8YwTZv-Xe-7" value="" style="endArrow=none;html=1;rounded=0;" parent="1" edge="1">
          <mxGeometry width="50" height="50" relative="1" as="geometry">
            <mxPoint x="20" y="190" as="sourcePoint" />
            <mxPoint x="20" y="120" as="targetPoint" />
          </mxGeometry>
        </mxCell>
        <mxCell id="Jjg69p7oEHA8YwTZv-Xe-8" value="" style="endArrow=none;html=1;rounded=0;" parent="1" edge="1">
          <mxGeometry width="50" height="50" relative="1" as="geometry">
            <mxPoint x="560" y="190" as="sourcePoint" />
            <mxPoint x="560" y="120" as="targetPoint" />
          </mxGeometry>
        </mxCell>
        <mxCell id="Jjg69p7oEHA8YwTZv-Xe-9" value="" style="endArrow=none;html=1;rounded=0;" parent="1" edge="1">
          <mxGeometry width="50" height="50" relative="1" as="geometry">
            <mxPoint x="320" y="190" as="sourcePoint" />
            <mxPoint x="320" y="120" as="targetPoint" />
          </mxGeometry>
        </mxCell>
        <mxCell id="Jjg69p7oEHA8YwTZv-Xe-10" value="" style="endArrow=classic;startArrow=classic;html=1;rounded=0;" parent="1" edge="1">
          <mxGeometry width="50" height="50" relative="1" as="geometry">
            <mxPoint x="20" y="137" as="sourcePoint" />
            <mxPoint x="320" y="137" as="targetPoint" />
          </mxGeometry>
        </mxCell>
        <mxCell id="Jjg69p7oEHA8YwTZv-Xe-11" value="&lt;font style=&quot;font-size: 14px;&quot;&gt;&amp;nbsp;记录的额外信息&amp;nbsp;&lt;/font&gt;" style="edgeLabel;html=1;align=center;verticalAlign=middle;resizable=0;points=[];" parent="Jjg69p7oEHA8YwTZv-Xe-10" vertex="1" connectable="0">
          <mxGeometry x="-0.0889" y="1" relative="1" as="geometry">
            <mxPoint as="offset" />
          </mxGeometry>
        </mxCell>
        <mxCell id="Jjg69p7oEHA8YwTZv-Xe-12" value="" style="endArrow=classic;startArrow=classic;html=1;rounded=0;" parent="1" edge="1">
          <mxGeometry width="50" height="50" relative="1" as="geometry">
            <mxPoint x="560" y="137" as="sourcePoint" />
            <mxPoint x="790" y="137" as="targetPoint" />
          </mxGeometry>
        </mxCell>
        <mxCell id="Jjg69p7oEHA8YwTZv-Xe-13" value="&amp;nbsp;记录的真实数据&amp;nbsp;" style="edgeLabel;html=1;align=center;verticalAlign=middle;resizable=0;points=[];fontSize=14;" parent="Jjg69p7oEHA8YwTZv-Xe-12" vertex="1" connectable="0">
          <mxGeometry x="-0.1758" y="2" relative="1" as="geometry">
            <mxPoint as="offset" />
          </mxGeometry>
        </mxCell>
        <mxCell id="Jjg69p7oEHA8YwTZv-Xe-14" value="" style="rounded=0;whiteSpace=wrap;html=1;fillColor=#fff2cc;strokeColor=#d6b656;" parent="1" vertex="1">
          <mxGeometry x="320" y="190" width="80" height="40" as="geometry" />
        </mxCell>
        <mxCell id="Jjg69p7oEHA8YwTZv-Xe-15" value="" style="rounded=0;whiteSpace=wrap;html=1;fillColor=#fff2cc;strokeColor=#d6b656;" parent="1" vertex="1">
          <mxGeometry x="400" y="190" width="70" height="40" as="geometry" />
        </mxCell>
        <mxCell id="Jjg69p7oEHA8YwTZv-Xe-16" value="" style="rounded=0;whiteSpace=wrap;html=1;fillColor=#fff2cc;strokeColor=#d6b656;" parent="1" vertex="1">
          <mxGeometry x="470" y="190" width="90" height="40" as="geometry" />
        </mxCell>
        <mxCell id="Jjg69p7oEHA8YwTZv-Xe-17" value="" style="endArrow=none;html=1;rounded=0;" parent="1" edge="1">
          <mxGeometry width="50" height="50" relative="1" as="geometry">
            <mxPoint x="790" y="190" as="sourcePoint" />
            <mxPoint x="790" y="120" as="targetPoint" />
          </mxGeometry>
        </mxCell>
        <mxCell id="Jjg69p7oEHA8YwTZv-Xe-18" value="" style="endArrow=classic;startArrow=classic;html=1;rounded=0;" parent="1" edge="1">
          <mxGeometry width="50" height="50" relative="1" as="geometry">
            <mxPoint x="320" y="137" as="sourcePoint" />
            <mxPoint x="560" y="137" as="targetPoint" />
          </mxGeometry>
        </mxCell>
        <mxCell id="Jjg69p7oEHA8YwTZv-Xe-19" value="&amp;nbsp;隐藏列&amp;nbsp;" style="edgeLabel;html=1;align=center;verticalAlign=middle;resizable=0;points=[];" parent="Jjg69p7oEHA8YwTZv-Xe-18" vertex="1" connectable="0">
          <mxGeometry x="-0.1852" y="2" relative="1" as="geometry">
            <mxPoint as="offset" />
          </mxGeometry>
        </mxCell>
        <mxCell id="Jjg69p7oEHA8YwTZv-Xe-20" value="&lt;font style=&quot;font-size: 12px;&quot;&gt;DB_ROW_ID&lt;/font&gt;" style="text;html=1;strokeColor=none;fillColor=none;align=center;verticalAlign=middle;whiteSpace=wrap;rounded=0;fontSize=12;" parent="1" vertex="1">
          <mxGeometry x="330" y="195" width="60" height="30" as="geometry" />
        </mxCell>
        <mxCell id="Jjg69p7oEHA8YwTZv-Xe-21" value="DB_TRX_ID" style="text;html=1;strokeColor=none;fillColor=none;align=center;verticalAlign=middle;whiteSpace=wrap;rounded=0;fontSize=12;" parent="1" vertex="1">
          <mxGeometry x="406" y="195" width="60" height="30" as="geometry" />
        </mxCell>
        <mxCell id="Jjg69p7oEHA8YwTZv-Xe-22" value="DB_ROLL_PTR" style="text;html=1;strokeColor=none;fillColor=none;align=center;verticalAlign=middle;whiteSpace=wrap;rounded=0;fontSize=12;" parent="1" vertex="1">
          <mxGeometry x="485" y="195" width="60" height="30" as="geometry" />
        </mxCell>
        <mxCell id="Jjg69p7oEHA8YwTZv-Xe-23" value="row_id" style="text;html=1;strokeColor=none;fillColor=none;align=center;verticalAlign=middle;whiteSpace=wrap;rounded=0;fontSize=12;" parent="1" vertex="1">
          <mxGeometry x="330" y="165" width="60" height="30" as="geometry" />
        </mxCell>
        <mxCell id="Jjg69p7oEHA8YwTZv-Xe-24" value="transaction_id" style="text;html=1;strokeColor=none;fillColor=none;align=center;verticalAlign=middle;whiteSpace=wrap;rounded=0;fontSize=12;" parent="1" vertex="1">
          <mxGeometry x="406" y="165" width="60" height="30" as="geometry" />
        </mxCell>
        <mxCell id="Jjg69p7oEHA8YwTZv-Xe-25" value="roll_pointer" style="text;html=1;strokeColor=none;fillColor=none;align=center;verticalAlign=middle;whiteSpace=wrap;rounded=0;fontSize=12;" parent="1" vertex="1">
          <mxGeometry x="490" y="165" width="60" height="30" as="geometry" />
        </mxCell>
        <mxCell id="Jjg69p7oEHA8YwTZv-Xe-26" value="" style="endArrow=none;html=1;rounded=0;" parent="1" edge="1">
          <mxGeometry width="50" height="50" relative="1" as="geometry">
            <mxPoint x="710" y="190" as="sourcePoint" />
            <mxPoint x="710" y="170" as="targetPoint" />
          </mxGeometry>
        </mxCell>
        <mxCell id="Jjg69p7oEHA8YwTZv-Xe-27" value="" style="endArrow=classic;startArrow=classic;html=1;rounded=0;" parent="1" edge="1">
          <mxGeometry width="50" height="50" relative="1" as="geometry">
            <mxPoint x="560" y="171" as="sourcePoint" />
            <mxPoint x="710" y="171" as="targetPoint" />
          </mxGeometry>
        </mxCell>
        <mxCell id="Jjg69p7oEHA8YwTZv-Xe-28" value="&amp;nbsp;某一列的数据&amp;nbsp;" style="edgeLabel;html=1;align=center;verticalAlign=middle;resizable=0;points=[];fontSize=12;" parent="Jjg69p7oEHA8YwTZv-Xe-27" vertex="1" connectable="0">
          <mxGeometry x="-0.36" y="-1" relative="1" as="geometry">
            <mxPoint x="22" as="offset" />
          </mxGeometry>
        </mxCell>
      </root>
    </mxGraphModel>
  </diagram>
  <diagram id="nysH7yIa8rP-WSv0ACLX" name="索引页结构">
    <mxGraphModel dx="782" dy="436" grid="1" gridSize="10" guides="1" tooltips="1" connect="1" arrows="1" fold="1" page="1" pageScale="1" pageWidth="827" pageHeight="1169" math="0" shadow="0">
      <root>
        <mxCell id="0" />
        <mxCell id="1" parent="0" />
        <mxCell id="VLsUxoJiypOmwsLwCBce-1" value="File Header （38 字节）" style="rounded=0;whiteSpace=wrap;html=1;fillColor=#1ba1e2;strokeColor=#006EAF;fontColor=#ffffff;" vertex="1" parent="1">
          <mxGeometry x="210" y="50" width="200" height="40" as="geometry" />
        </mxCell>
        <mxCell id="VLsUxoJiypOmwsLwCBce-2" value="Page Header（56 字节）" style="rounded=0;whiteSpace=wrap;html=1;fillColor=#f0a30a;fontColor=#000000;strokeColor=#BD7000;" vertex="1" parent="1">
          <mxGeometry x="210" y="90" width="200" height="50" as="geometry" />
        </mxCell>
        <mxCell id="VLsUxoJiypOmwsLwCBce-3" value="Infimum + Supremum （26 字节）" style="rounded=0;whiteSpace=wrap;html=1;fillColor=#d5e8d4;strokeColor=#82b366;" vertex="1" parent="1">
          <mxGeometry x="210" y="140" width="200" height="30" as="geometry" />
        </mxCell>
        <mxCell id="VLsUxoJiypOmwsLwCBce-4" value="User Records（不确定）" style="rounded=0;whiteSpace=wrap;html=1;fillColor=#b1ddf0;strokeColor=#10739e;" vertex="1" parent="1">
          <mxGeometry x="210" y="170" width="200" height="50" as="geometry" />
        </mxCell>
        <mxCell id="VLsUxoJiypOmwsLwCBce-5" value="Free Space（不确定）" style="rounded=0;whiteSpace=wrap;html=1;fillColor=#60a917;strokeColor=#2D7600;fontColor=#ffffff;" vertex="1" parent="1">
          <mxGeometry x="210" y="220" width="200" height="50" as="geometry" />
        </mxCell>
        <mxCell id="VLsUxoJiypOmwsLwCBce-6" value="Page Directory（不确定）" style="rounded=0;whiteSpace=wrap;html=1;fillColor=#bac8d3;strokeColor=#23445d;" vertex="1" parent="1">
          <mxGeometry x="210" y="270" width="200" height="50" as="geometry" />
        </mxCell>
        <mxCell id="VLsUxoJiypOmwsLwCBce-7" value="File Trailer （8 字节）" style="rounded=0;whiteSpace=wrap;html=1;fillColor=#d80073;fontColor=#ffffff;strokeColor=#A50040;" vertex="1" parent="1">
          <mxGeometry x="210" y="320" width="200" height="30" as="geometry" />
        </mxCell>
        <mxCell id="VLsUxoJiypOmwsLwCBce-8" value="" style="shape=curlyBracket;whiteSpace=wrap;html=1;rounded=1;flipH=1;labelPosition=right;verticalLabelPosition=middle;align=left;verticalAlign=middle;" vertex="1" parent="1">
          <mxGeometry x="411" y="140" width="20" height="80" as="geometry" />
        </mxCell>
        <mxCell id="VLsUxoJiypOmwsLwCBce-9" value="记录&lt;br&gt;信息" style="text;html=1;strokeColor=none;fillColor=none;align=center;verticalAlign=middle;whiteSpace=wrap;rounded=0;" vertex="1" parent="1">
          <mxGeometry x="414" y="165" width="60" height="30" as="geometry" />
        </mxCell>
      </root>
    </mxGraphModel>
  </diagram>
  <diagram id="cbKrWa53PEzZJBSzm6XB" name="记录插入页的流程">
    <mxGraphModel dx="782" dy="436" grid="1" gridSize="10" guides="1" tooltips="1" connect="1" arrows="1" fold="1" page="1" pageScale="1" pageWidth="1169" pageHeight="827" math="0" shadow="0">
      <root>
        <mxCell id="0" />
        <mxCell id="1" parent="0" />
        <mxCell id="IaYN8yq6ivktAlC2n9vt-53" value="" style="html=1;shadow=0;dashed=0;align=center;verticalAlign=middle;shape=mxgraph.arrows2.arrow;dy=0.67;dx=17.33;notch=0;rounded=1;glass=0;sketch=0;fontSize=14;fontColor=#FF0000;fillColor=#000000;" parent="1" vertex="1">
          <mxGeometry x="295" y="297" width="40" height="20" as="geometry" />
        </mxCell>
        <mxCell id="IaYN8yq6ivktAlC2n9vt-71" value="" style="html=1;shadow=0;dashed=0;align=center;verticalAlign=middle;shape=mxgraph.arrows2.arrow;dy=0.67;dx=17.33;notch=0;rounded=1;glass=0;sketch=0;fontSize=14;fontColor=#FF0000;fillColor=#000000;" parent="1" vertex="1">
          <mxGeometry x="514" y="293" width="40" height="20" as="geometry" />
        </mxCell>
        <mxCell id="IaYN8yq6ivktAlC2n9vt-76" value="" style="rounded=1;whiteSpace=wrap;html=1;arcSize=6;sketch=0;shadow=0;glass=0;fillColor=#f9f7ed;strokeColor=#36393d;" parent="1" vertex="1">
          <mxGeometry x="818" y="139" width="170" height="334" as="geometry" />
        </mxCell>
        <mxCell id="IaYN8yq6ivktAlC2n9vt-77" value="" style="rounded=0;whiteSpace=wrap;html=1;fillColor=#1ba1e2;strokeColor=#006EAF;fontColor=#ffffff;" parent="1" vertex="1">
          <mxGeometry x="898" y="169" width="80" height="30" as="geometry" />
        </mxCell>
        <mxCell id="IaYN8yq6ivktAlC2n9vt-78" value="" style="rounded=0;whiteSpace=wrap;html=1;fillColor=#f0a30a;fontColor=#000000;strokeColor=#BD7000;" parent="1" vertex="1">
          <mxGeometry x="898" y="199" width="80" height="40" as="geometry" />
        </mxCell>
        <mxCell id="IaYN8yq6ivktAlC2n9vt-79" value="" style="rounded=0;whiteSpace=wrap;html=1;fillColor=#d5e8d4;strokeColor=#82b366;" parent="1" vertex="1">
          <mxGeometry x="898" y="239" width="80" height="30" as="geometry" />
        </mxCell>
        <mxCell id="IaYN8yq6ivktAlC2n9vt-81" value="" style="rounded=0;whiteSpace=wrap;html=1;fillColor=#bac8d3;strokeColor=#23445d;" parent="1" vertex="1">
          <mxGeometry x="898" y="389" width="80" height="50" as="geometry" />
        </mxCell>
        <mxCell id="IaYN8yq6ivktAlC2n9vt-82" value="" style="rounded=0;whiteSpace=wrap;html=1;fillColor=#d80073;fontColor=#ffffff;strokeColor=#A50040;" parent="1" vertex="1">
          <mxGeometry x="898" y="439" width="80" height="30" as="geometry" />
        </mxCell>
        <mxCell id="IaYN8yq6ivktAlC2n9vt-83" value="File &lt;br&gt;Header&amp;nbsp;" style="text;html=1;strokeColor=none;fillColor=none;align=center;verticalAlign=middle;whiteSpace=wrap;rounded=0;" parent="1" vertex="1">
          <mxGeometry x="823" y="169" width="70" height="30" as="geometry" />
        </mxCell>
        <mxCell id="IaYN8yq6ivktAlC2n9vt-84" value="Page &lt;br&gt;Header&amp;nbsp;" style="text;html=1;strokeColor=none;fillColor=none;align=center;verticalAlign=middle;whiteSpace=wrap;rounded=0;" parent="1" vertex="1">
          <mxGeometry x="818" y="204" width="80" height="30" as="geometry" />
        </mxCell>
        <mxCell id="IaYN8yq6ivktAlC2n9vt-85" value="&lt;font style=&quot;font-size: 12px;&quot;&gt;Infimum &amp;amp;&lt;br&gt;Supremum&lt;/font&gt;" style="text;html=1;strokeColor=none;fillColor=none;align=center;verticalAlign=middle;whiteSpace=wrap;rounded=0;" parent="1" vertex="1">
          <mxGeometry x="823" y="239" width="70" height="30" as="geometry" />
        </mxCell>
        <mxCell id="IaYN8yq6ivktAlC2n9vt-86" value="&lt;font style=&quot;background-color: rgb(255, 0, 0);&quot; color=&quot;#ffffff&quot;&gt;Free&amp;nbsp;Space &lt;br&gt;空间用完&lt;/font&gt;" style="text;html=1;strokeColor=none;fillColor=none;align=center;verticalAlign=middle;whiteSpace=wrap;rounded=0;" parent="1" vertex="1">
          <mxGeometry x="813" y="360" width="90" height="30" as="geometry" />
        </mxCell>
        <mxCell id="IaYN8yq6ivktAlC2n9vt-87" value="Page &lt;br&gt;Directory" style="text;html=1;strokeColor=none;fillColor=none;align=center;verticalAlign=middle;whiteSpace=wrap;rounded=0;" parent="1" vertex="1">
          <mxGeometry x="823" y="399" width="70" height="30" as="geometry" />
        </mxCell>
        <mxCell id="IaYN8yq6ivktAlC2n9vt-88" value="File &lt;br&gt;Trailer" style="text;html=1;strokeColor=none;fillColor=none;align=center;verticalAlign=middle;whiteSpace=wrap;rounded=0;" parent="1" vertex="1">
          <mxGeometry x="823" y="439" width="70" height="30" as="geometry" />
        </mxCell>
        <mxCell id="IaYN8yq6ivktAlC2n9vt-89" value="&lt;font color=&quot;#ff0000&quot; style=&quot;font-size: 14px;&quot;&gt;插入第 n 条记录&lt;/font&gt;" style="text;html=1;strokeColor=none;fillColor=none;align=center;verticalAlign=middle;whiteSpace=wrap;rounded=0;shadow=0;glass=0;sketch=0;fontSize=12;fontColor=#000000;" parent="1" vertex="1">
          <mxGeometry x="823" y="139" width="107" height="30" as="geometry" />
        </mxCell>
        <mxCell id="IaYN8yq6ivktAlC2n9vt-90" value="" style="html=1;shadow=0;dashed=0;align=center;verticalAlign=middle;shape=mxgraph.arrows2.arrow;dy=0.67;dx=17.33;notch=0;rounded=1;glass=0;sketch=0;fontSize=14;fontColor=#FF0000;fillColor=#000000;" parent="1" vertex="1">
          <mxGeometry x="733" y="291" width="40" height="20" as="geometry" />
        </mxCell>
        <mxCell id="IaYN8yq6ivktAlC2n9vt-91" value="" style="rounded=0;whiteSpace=wrap;html=1;fillColor=#b1ddf0;strokeColor=#10739e;" parent="1" vertex="1">
          <mxGeometry x="898" y="269" width="80" height="121" as="geometry" />
        </mxCell>
        <mxCell id="IaYN8yq6ivktAlC2n9vt-92" value="&lt;font color=&quot;#ffffff&quot; style=&quot;background-color: rgb(153, 0, 153); font-size: 14px;&quot;&gt;&amp;nbsp; 记录1&amp;nbsp;&amp;nbsp;&lt;/font&gt;" style="text;html=1;strokeColor=none;fillColor=none;align=center;verticalAlign=middle;whiteSpace=wrap;rounded=0;shadow=0;glass=0;sketch=0;fontSize=14;fontColor=#FF0000;" parent="1" vertex="1">
          <mxGeometry x="907" y="269" width="60" height="30" as="geometry" />
        </mxCell>
        <mxCell id="IaYN8yq6ivktAlC2n9vt-93" value="&lt;font color=&quot;#ffffff&quot; style=&quot;background-color: rgb(153, 0, 153); font-size: 14px;&quot;&gt;&amp;nbsp; 记录2&amp;nbsp;&amp;nbsp;&lt;/font&gt;" style="text;html=1;strokeColor=none;fillColor=none;align=center;verticalAlign=middle;whiteSpace=wrap;rounded=0;shadow=0;glass=0;sketch=0;fontSize=14;fontColor=#FF0000;" parent="1" vertex="1">
          <mxGeometry x="908" y="289" width="60" height="30" as="geometry" />
        </mxCell>
        <mxCell id="IaYN8yq6ivktAlC2n9vt-99" value="" style="group" parent="1" vertex="1" connectable="0">
          <mxGeometry x="762" y="282" width="62" height="40" as="geometry" />
        </mxCell>
        <mxCell id="IaYN8yq6ivktAlC2n9vt-96" value="" style="shape=waypoint;sketch=0;fillStyle=solid;size=6;pointerEvents=1;points=[];fillColor=none;resizable=0;rotatable=0;perimeter=centerPerimeter;snapToPoint=1;rounded=1;shadow=0;glass=0;labelBackgroundColor=none;fontSize=8;fontColor=#000000;" parent="IaYN8yq6ivktAlC2n9vt-99" vertex="1">
          <mxGeometry x="22" width="40" height="40" as="geometry" />
        </mxCell>
        <mxCell id="IaYN8yq6ivktAlC2n9vt-97" value="" style="shape=waypoint;sketch=0;fillStyle=solid;size=6;pointerEvents=1;points=[];fillColor=none;resizable=0;rotatable=0;perimeter=centerPerimeter;snapToPoint=1;rounded=1;shadow=0;glass=0;labelBackgroundColor=none;fontSize=8;fontColor=#000000;" parent="IaYN8yq6ivktAlC2n9vt-99" vertex="1">
          <mxGeometry x="11" width="40" height="40" as="geometry" />
        </mxCell>
        <mxCell id="IaYN8yq6ivktAlC2n9vt-98" value="" style="shape=waypoint;sketch=0;fillStyle=solid;size=6;pointerEvents=1;points=[];fillColor=none;resizable=0;rotatable=0;perimeter=centerPerimeter;snapToPoint=1;rounded=1;shadow=0;glass=0;labelBackgroundColor=none;fontSize=8;fontColor=#000000;" parent="IaYN8yq6ivktAlC2n9vt-99" vertex="1">
          <mxGeometry width="40" height="40" as="geometry" />
        </mxCell>
        <mxCell id="IaYN8yq6ivktAlC2n9vt-100" value="" style="group" parent="1" vertex="1" connectable="0">
          <mxGeometry x="120" y="140" width="170" height="334" as="geometry" />
        </mxCell>
        <mxCell id="IaYN8yq6ivktAlC2n9vt-20" value="" style="rounded=1;whiteSpace=wrap;html=1;arcSize=6;sketch=0;shadow=0;glass=0;fillColor=#f9f7ed;strokeColor=#36393d;" parent="IaYN8yq6ivktAlC2n9vt-100" vertex="1">
          <mxGeometry width="170" height="334" as="geometry" />
        </mxCell>
        <mxCell id="IaYN8yq6ivktAlC2n9vt-1" value="" style="rounded=0;whiteSpace=wrap;html=1;fillColor=#1ba1e2;strokeColor=#006EAF;fontColor=#ffffff;" parent="IaYN8yq6ivktAlC2n9vt-100" vertex="1">
          <mxGeometry x="80" y="30" width="80" height="30" as="geometry" />
        </mxCell>
        <mxCell id="IaYN8yq6ivktAlC2n9vt-2" value="" style="rounded=0;whiteSpace=wrap;html=1;fillColor=#f0a30a;fontColor=#000000;strokeColor=#BD7000;" parent="IaYN8yq6ivktAlC2n9vt-100" vertex="1">
          <mxGeometry x="80" y="60" width="80" height="40" as="geometry" />
        </mxCell>
        <mxCell id="IaYN8yq6ivktAlC2n9vt-3" value="" style="rounded=0;whiteSpace=wrap;html=1;fillColor=#d5e8d4;strokeColor=#82b366;" parent="IaYN8yq6ivktAlC2n9vt-100" vertex="1">
          <mxGeometry x="80" y="100" width="80" height="30" as="geometry" />
        </mxCell>
        <mxCell id="IaYN8yq6ivktAlC2n9vt-5" value="" style="rounded=0;whiteSpace=wrap;html=1;fillColor=#60a917;strokeColor=#2D7600;fontColor=#ffffff;" parent="IaYN8yq6ivktAlC2n9vt-100" vertex="1">
          <mxGeometry x="80" y="130" width="80" height="120" as="geometry" />
        </mxCell>
        <mxCell id="IaYN8yq6ivktAlC2n9vt-6" value="" style="rounded=0;whiteSpace=wrap;html=1;fillColor=#bac8d3;strokeColor=#23445d;" parent="IaYN8yq6ivktAlC2n9vt-100" vertex="1">
          <mxGeometry x="80" y="250" width="80" height="50" as="geometry" />
        </mxCell>
        <mxCell id="IaYN8yq6ivktAlC2n9vt-7" value="" style="rounded=0;whiteSpace=wrap;html=1;fillColor=#d80073;fontColor=#ffffff;strokeColor=#A50040;" parent="IaYN8yq6ivktAlC2n9vt-100" vertex="1">
          <mxGeometry x="80" y="300" width="80" height="30" as="geometry" />
        </mxCell>
        <mxCell id="IaYN8yq6ivktAlC2n9vt-11" value="File &lt;br&gt;Header&amp;nbsp;" style="text;html=1;strokeColor=none;fillColor=none;align=center;verticalAlign=middle;whiteSpace=wrap;rounded=0;" parent="IaYN8yq6ivktAlC2n9vt-100" vertex="1">
          <mxGeometry x="5" y="30" width="70" height="30" as="geometry" />
        </mxCell>
        <mxCell id="IaYN8yq6ivktAlC2n9vt-12" value="Page &lt;br&gt;Header&amp;nbsp;" style="text;html=1;strokeColor=none;fillColor=none;align=center;verticalAlign=middle;whiteSpace=wrap;rounded=0;" parent="IaYN8yq6ivktAlC2n9vt-100" vertex="1">
          <mxGeometry y="65" width="80" height="30" as="geometry" />
        </mxCell>
        <mxCell id="IaYN8yq6ivktAlC2n9vt-13" value="&lt;font style=&quot;font-size: 12px;&quot;&gt;Infimum &amp;amp;&lt;br&gt;Supremum&lt;/font&gt;" style="text;html=1;strokeColor=none;fillColor=none;align=center;verticalAlign=middle;whiteSpace=wrap;rounded=0;" parent="IaYN8yq6ivktAlC2n9vt-100" vertex="1">
          <mxGeometry x="5" y="100" width="70" height="30" as="geometry" />
        </mxCell>
        <mxCell id="IaYN8yq6ivktAlC2n9vt-14" value="Free&lt;br&gt;&amp;nbsp;Space" style="text;html=1;strokeColor=none;fillColor=none;align=center;verticalAlign=middle;whiteSpace=wrap;rounded=0;" parent="IaYN8yq6ivktAlC2n9vt-100" vertex="1">
          <mxGeometry x="5" y="170" width="70" height="30" as="geometry" />
        </mxCell>
        <mxCell id="IaYN8yq6ivktAlC2n9vt-15" value="Page &lt;br&gt;Directory" style="text;html=1;strokeColor=none;fillColor=none;align=center;verticalAlign=middle;whiteSpace=wrap;rounded=0;" parent="IaYN8yq6ivktAlC2n9vt-100" vertex="1">
          <mxGeometry x="5" y="260" width="70" height="30" as="geometry" />
        </mxCell>
        <mxCell id="IaYN8yq6ivktAlC2n9vt-16" value="File &lt;br&gt;Trailer" style="text;html=1;strokeColor=none;fillColor=none;align=center;verticalAlign=middle;whiteSpace=wrap;rounded=0;" parent="IaYN8yq6ivktAlC2n9vt-100" vertex="1">
          <mxGeometry x="5" y="300" width="70" height="30" as="geometry" />
        </mxCell>
        <mxCell id="IaYN8yq6ivktAlC2n9vt-21" value="&lt;font color=&quot;#ff0000&quot; style=&quot;font-size: 14px;&quot;&gt;初始页&lt;/font&gt;" style="text;html=1;strokeColor=none;fillColor=none;align=center;verticalAlign=middle;whiteSpace=wrap;rounded=0;shadow=0;glass=0;sketch=0;fontSize=12;fontColor=#000000;" parent="IaYN8yq6ivktAlC2n9vt-100" vertex="1">
          <mxGeometry x="5" width="60" height="30" as="geometry" />
        </mxCell>
        <mxCell id="IaYN8yq6ivktAlC2n9vt-101" value="" style="group" parent="1" vertex="1" connectable="0">
          <mxGeometry x="340" y="140" width="170" height="334" as="geometry" />
        </mxCell>
        <mxCell id="IaYN8yq6ivktAlC2n9vt-37" value="" style="rounded=1;whiteSpace=wrap;html=1;arcSize=6;sketch=0;shadow=0;glass=0;fillColor=#f9f7ed;strokeColor=#36393d;" parent="IaYN8yq6ivktAlC2n9vt-101" vertex="1">
          <mxGeometry width="170" height="334" as="geometry" />
        </mxCell>
        <mxCell id="IaYN8yq6ivktAlC2n9vt-38" value="" style="rounded=0;whiteSpace=wrap;html=1;fillColor=#1ba1e2;strokeColor=#006EAF;fontColor=#ffffff;" parent="IaYN8yq6ivktAlC2n9vt-101" vertex="1">
          <mxGeometry x="80" y="30" width="80" height="30" as="geometry" />
        </mxCell>
        <mxCell id="IaYN8yq6ivktAlC2n9vt-39" value="" style="rounded=0;whiteSpace=wrap;html=1;fillColor=#f0a30a;fontColor=#000000;strokeColor=#BD7000;" parent="IaYN8yq6ivktAlC2n9vt-101" vertex="1">
          <mxGeometry x="80" y="60" width="80" height="40" as="geometry" />
        </mxCell>
        <mxCell id="IaYN8yq6ivktAlC2n9vt-40" value="" style="rounded=0;whiteSpace=wrap;html=1;fillColor=#d5e8d4;strokeColor=#82b366;" parent="IaYN8yq6ivktAlC2n9vt-101" vertex="1">
          <mxGeometry x="80" y="100" width="80" height="30" as="geometry" />
        </mxCell>
        <mxCell id="IaYN8yq6ivktAlC2n9vt-41" value="" style="rounded=0;whiteSpace=wrap;html=1;fillColor=#60a917;strokeColor=#2D7600;fontColor=#ffffff;" parent="IaYN8yq6ivktAlC2n9vt-101" vertex="1">
          <mxGeometry x="80" y="150" width="80" height="100" as="geometry" />
        </mxCell>
        <mxCell id="IaYN8yq6ivktAlC2n9vt-42" value="" style="rounded=0;whiteSpace=wrap;html=1;fillColor=#bac8d3;strokeColor=#23445d;" parent="IaYN8yq6ivktAlC2n9vt-101" vertex="1">
          <mxGeometry x="80" y="250" width="80" height="50" as="geometry" />
        </mxCell>
        <mxCell id="IaYN8yq6ivktAlC2n9vt-43" value="" style="rounded=0;whiteSpace=wrap;html=1;fillColor=#d80073;fontColor=#ffffff;strokeColor=#A50040;" parent="IaYN8yq6ivktAlC2n9vt-101" vertex="1">
          <mxGeometry x="80" y="300" width="80" height="30" as="geometry" />
        </mxCell>
        <mxCell id="IaYN8yq6ivktAlC2n9vt-44" value="File &lt;br&gt;Header&amp;nbsp;" style="text;html=1;strokeColor=none;fillColor=none;align=center;verticalAlign=middle;whiteSpace=wrap;rounded=0;" parent="IaYN8yq6ivktAlC2n9vt-101" vertex="1">
          <mxGeometry x="5" y="30" width="70" height="30" as="geometry" />
        </mxCell>
        <mxCell id="IaYN8yq6ivktAlC2n9vt-45" value="Page &lt;br&gt;Header&amp;nbsp;" style="text;html=1;strokeColor=none;fillColor=none;align=center;verticalAlign=middle;whiteSpace=wrap;rounded=0;" parent="IaYN8yq6ivktAlC2n9vt-101" vertex="1">
          <mxGeometry y="65" width="80" height="30" as="geometry" />
        </mxCell>
        <mxCell id="IaYN8yq6ivktAlC2n9vt-46" value="&lt;font style=&quot;font-size: 12px;&quot;&gt;Infimum &amp;amp;&lt;br&gt;Supremum&lt;/font&gt;" style="text;html=1;strokeColor=none;fillColor=none;align=center;verticalAlign=middle;whiteSpace=wrap;rounded=0;" parent="IaYN8yq6ivktAlC2n9vt-101" vertex="1">
          <mxGeometry x="5" y="100" width="70" height="30" as="geometry" />
        </mxCell>
        <mxCell id="IaYN8yq6ivktAlC2n9vt-47" value="Free&lt;br&gt;&amp;nbsp;Space" style="text;html=1;strokeColor=none;fillColor=none;align=center;verticalAlign=middle;whiteSpace=wrap;rounded=0;" parent="IaYN8yq6ivktAlC2n9vt-101" vertex="1">
          <mxGeometry x="5" y="190" width="70" height="30" as="geometry" />
        </mxCell>
        <mxCell id="IaYN8yq6ivktAlC2n9vt-48" value="Page &lt;br&gt;Directory" style="text;html=1;strokeColor=none;fillColor=none;align=center;verticalAlign=middle;whiteSpace=wrap;rounded=0;" parent="IaYN8yq6ivktAlC2n9vt-101" vertex="1">
          <mxGeometry x="5" y="260" width="70" height="30" as="geometry" />
        </mxCell>
        <mxCell id="IaYN8yq6ivktAlC2n9vt-49" value="File &lt;br&gt;Trailer" style="text;html=1;strokeColor=none;fillColor=none;align=center;verticalAlign=middle;whiteSpace=wrap;rounded=0;" parent="IaYN8yq6ivktAlC2n9vt-101" vertex="1">
          <mxGeometry x="5" y="300" width="70" height="30" as="geometry" />
        </mxCell>
        <mxCell id="IaYN8yq6ivktAlC2n9vt-50" value="&lt;font color=&quot;#ff0000&quot; style=&quot;font-size: 14px;&quot;&gt;插入第 1 条记录&lt;/font&gt;" style="text;html=1;strokeColor=none;fillColor=none;align=center;verticalAlign=middle;whiteSpace=wrap;rounded=0;shadow=0;glass=0;sketch=0;fontSize=12;fontColor=#000000;" parent="IaYN8yq6ivktAlC2n9vt-101" vertex="1">
          <mxGeometry x="5" width="105" height="30" as="geometry" />
        </mxCell>
        <mxCell id="IaYN8yq6ivktAlC2n9vt-55" value="" style="rounded=0;whiteSpace=wrap;html=1;fillColor=#b1ddf0;strokeColor=#10739e;" parent="IaYN8yq6ivktAlC2n9vt-101" vertex="1">
          <mxGeometry x="80" y="130" width="80" height="20" as="geometry" />
        </mxCell>
        <mxCell id="IaYN8yq6ivktAlC2n9vt-56" value="&lt;font color=&quot;#ffffff&quot; style=&quot;background-color: rgb(153, 0, 153); font-size: 14px;&quot;&gt;&amp;nbsp; 记录1&amp;nbsp;&amp;nbsp;&lt;/font&gt;" style="text;html=1;strokeColor=none;fillColor=none;align=center;verticalAlign=middle;whiteSpace=wrap;rounded=0;shadow=0;glass=0;sketch=0;fontSize=14;fontColor=#FF0000;" parent="IaYN8yq6ivktAlC2n9vt-101" vertex="1">
          <mxGeometry x="90" y="125" width="60" height="30" as="geometry" />
        </mxCell>
        <mxCell id="IaYN8yq6ivktAlC2n9vt-74" value="User Records" style="text;html=1;strokeColor=none;fillColor=none;align=center;verticalAlign=middle;whiteSpace=wrap;rounded=0;" parent="IaYN8yq6ivktAlC2n9vt-101" vertex="1">
          <mxGeometry y="127" width="80" height="30" as="geometry" />
        </mxCell>
        <mxCell id="IaYN8yq6ivktAlC2n9vt-102" value="" style="group" parent="1" vertex="1" connectable="0">
          <mxGeometry x="559" y="140" width="170" height="334" as="geometry" />
        </mxCell>
        <mxCell id="IaYN8yq6ivktAlC2n9vt-57" value="" style="rounded=1;whiteSpace=wrap;html=1;arcSize=6;sketch=0;shadow=0;glass=0;fillColor=#f9f7ed;strokeColor=#36393d;" parent="IaYN8yq6ivktAlC2n9vt-102" vertex="1">
          <mxGeometry width="170" height="334" as="geometry" />
        </mxCell>
        <mxCell id="IaYN8yq6ivktAlC2n9vt-58" value="" style="rounded=0;whiteSpace=wrap;html=1;fillColor=#1ba1e2;strokeColor=#006EAF;fontColor=#ffffff;" parent="IaYN8yq6ivktAlC2n9vt-102" vertex="1">
          <mxGeometry x="80" y="30" width="80" height="30" as="geometry" />
        </mxCell>
        <mxCell id="IaYN8yq6ivktAlC2n9vt-59" value="" style="rounded=0;whiteSpace=wrap;html=1;fillColor=#f0a30a;fontColor=#000000;strokeColor=#BD7000;" parent="IaYN8yq6ivktAlC2n9vt-102" vertex="1">
          <mxGeometry x="80" y="60" width="80" height="40" as="geometry" />
        </mxCell>
        <mxCell id="IaYN8yq6ivktAlC2n9vt-60" value="" style="rounded=0;whiteSpace=wrap;html=1;fillColor=#d5e8d4;strokeColor=#82b366;" parent="IaYN8yq6ivktAlC2n9vt-102" vertex="1">
          <mxGeometry x="80" y="100" width="80" height="30" as="geometry" />
        </mxCell>
        <mxCell id="IaYN8yq6ivktAlC2n9vt-61" value="" style="rounded=0;whiteSpace=wrap;html=1;fillColor=#60a917;strokeColor=#2D7600;fontColor=#ffffff;" parent="IaYN8yq6ivktAlC2n9vt-102" vertex="1">
          <mxGeometry x="80" y="174" width="80" height="76" as="geometry" />
        </mxCell>
        <mxCell id="IaYN8yq6ivktAlC2n9vt-62" value="" style="rounded=0;whiteSpace=wrap;html=1;fillColor=#bac8d3;strokeColor=#23445d;" parent="IaYN8yq6ivktAlC2n9vt-102" vertex="1">
          <mxGeometry x="80" y="250" width="80" height="50" as="geometry" />
        </mxCell>
        <mxCell id="IaYN8yq6ivktAlC2n9vt-63" value="" style="rounded=0;whiteSpace=wrap;html=1;fillColor=#d80073;fontColor=#ffffff;strokeColor=#A50040;" parent="IaYN8yq6ivktAlC2n9vt-102" vertex="1">
          <mxGeometry x="80" y="300" width="80" height="30" as="geometry" />
        </mxCell>
        <mxCell id="IaYN8yq6ivktAlC2n9vt-64" value="File &lt;br&gt;Header&amp;nbsp;" style="text;html=1;strokeColor=none;fillColor=none;align=center;verticalAlign=middle;whiteSpace=wrap;rounded=0;" parent="IaYN8yq6ivktAlC2n9vt-102" vertex="1">
          <mxGeometry x="5" y="30" width="70" height="30" as="geometry" />
        </mxCell>
        <mxCell id="IaYN8yq6ivktAlC2n9vt-65" value="Page &lt;br&gt;Header&amp;nbsp;" style="text;html=1;strokeColor=none;fillColor=none;align=center;verticalAlign=middle;whiteSpace=wrap;rounded=0;" parent="IaYN8yq6ivktAlC2n9vt-102" vertex="1">
          <mxGeometry y="65" width="80" height="30" as="geometry" />
        </mxCell>
        <mxCell id="IaYN8yq6ivktAlC2n9vt-66" value="&lt;font style=&quot;font-size: 12px;&quot;&gt;Infimum &amp;amp;&lt;br&gt;Supremum&lt;/font&gt;" style="text;html=1;strokeColor=none;fillColor=none;align=center;verticalAlign=middle;whiteSpace=wrap;rounded=0;" parent="IaYN8yq6ivktAlC2n9vt-102" vertex="1">
          <mxGeometry x="5" y="100" width="70" height="30" as="geometry" />
        </mxCell>
        <mxCell id="IaYN8yq6ivktAlC2n9vt-67" value="Free&lt;br&gt;&amp;nbsp;Space" style="text;html=1;strokeColor=none;fillColor=none;align=center;verticalAlign=middle;whiteSpace=wrap;rounded=0;" parent="IaYN8yq6ivktAlC2n9vt-102" vertex="1">
          <mxGeometry x="5" y="190" width="70" height="30" as="geometry" />
        </mxCell>
        <mxCell id="IaYN8yq6ivktAlC2n9vt-68" value="Page &lt;br&gt;Directory" style="text;html=1;strokeColor=none;fillColor=none;align=center;verticalAlign=middle;whiteSpace=wrap;rounded=0;" parent="IaYN8yq6ivktAlC2n9vt-102" vertex="1">
          <mxGeometry x="5" y="260" width="70" height="30" as="geometry" />
        </mxCell>
        <mxCell id="IaYN8yq6ivktAlC2n9vt-69" value="File &lt;br&gt;Trailer" style="text;html=1;strokeColor=none;fillColor=none;align=center;verticalAlign=middle;whiteSpace=wrap;rounded=0;" parent="IaYN8yq6ivktAlC2n9vt-102" vertex="1">
          <mxGeometry x="5" y="300" width="70" height="30" as="geometry" />
        </mxCell>
        <mxCell id="IaYN8yq6ivktAlC2n9vt-70" value="&lt;font color=&quot;#ff0000&quot; style=&quot;font-size: 14px;&quot;&gt;插入第 2 条记录&lt;/font&gt;" style="text;html=1;strokeColor=none;fillColor=none;align=center;verticalAlign=middle;whiteSpace=wrap;rounded=0;shadow=0;glass=0;sketch=0;fontSize=12;fontColor=#000000;" parent="IaYN8yq6ivktAlC2n9vt-102" vertex="1">
          <mxGeometry x="5" width="106" height="30" as="geometry" />
        </mxCell>
        <mxCell id="IaYN8yq6ivktAlC2n9vt-72" value="" style="rounded=0;whiteSpace=wrap;html=1;fillColor=#b1ddf0;strokeColor=#10739e;" parent="IaYN8yq6ivktAlC2n9vt-102" vertex="1">
          <mxGeometry x="80" y="130" width="80" height="44" as="geometry" />
        </mxCell>
        <mxCell id="IaYN8yq6ivktAlC2n9vt-73" value="&lt;font color=&quot;#ffffff&quot; style=&quot;background-color: rgb(153, 0, 153); font-size: 14px;&quot;&gt;&amp;nbsp; 记录1&amp;nbsp;&amp;nbsp;&lt;/font&gt;" style="text;html=1;strokeColor=none;fillColor=none;align=center;verticalAlign=middle;whiteSpace=wrap;rounded=0;shadow=0;glass=0;sketch=0;fontSize=14;fontColor=#FF0000;" parent="IaYN8yq6ivktAlC2n9vt-102" vertex="1">
          <mxGeometry x="90" y="127" width="60" height="30" as="geometry" />
        </mxCell>
        <mxCell id="IaYN8yq6ivktAlC2n9vt-75" value="&lt;font color=&quot;#ffffff&quot; style=&quot;background-color: rgb(153, 0, 153); font-size: 14px;&quot;&gt;&amp;nbsp; 记录2&amp;nbsp;&amp;nbsp;&lt;/font&gt;" style="text;html=1;strokeColor=none;fillColor=none;align=center;verticalAlign=middle;whiteSpace=wrap;rounded=0;shadow=0;glass=0;sketch=0;fontSize=14;fontColor=#FF0000;" parent="IaYN8yq6ivktAlC2n9vt-102" vertex="1">
          <mxGeometry x="90" y="147" width="60" height="30" as="geometry" />
        </mxCell>
        <mxCell id="IaYN8yq6ivktAlC2n9vt-103" value="User Records" style="text;html=1;strokeColor=none;fillColor=none;align=center;verticalAlign=middle;whiteSpace=wrap;rounded=0;" parent="IaYN8yq6ivktAlC2n9vt-102" vertex="1">
          <mxGeometry x="1" y="139" width="80" height="30" as="geometry" />
        </mxCell>
        <mxCell id="IaYN8yq6ivktAlC2n9vt-105" value="User Records" style="text;html=1;strokeColor=none;fillColor=none;align=center;verticalAlign=middle;whiteSpace=wrap;rounded=0;" parent="1" vertex="1">
          <mxGeometry x="820" y="314" width="80" height="30" as="geometry" />
        </mxCell>
        <mxCell id="IaYN8yq6ivktAlC2n9vt-106" value="&lt;font color=&quot;#ffffff&quot; style=&quot;background-color: rgb(153, 0, 153); font-size: 14px;&quot;&gt;&amp;nbsp; 记录n&amp;nbsp;&amp;nbsp;&lt;/font&gt;" style="text;html=1;strokeColor=none;fillColor=none;align=center;verticalAlign=middle;whiteSpace=wrap;rounded=0;shadow=0;glass=0;sketch=0;fontSize=14;fontColor=#FF0000;" parent="1" vertex="1">
          <mxGeometry x="908" y="350" width="60" height="30" as="geometry" />
        </mxCell>
        <mxCell id="IaYN8yq6ivktAlC2n9vt-107" value="" style="group;rotation=90;" parent="1" vertex="1" connectable="0">
          <mxGeometry x="893" y="314" width="62.5" height="40" as="geometry" />
        </mxCell>
        <mxCell id="IaYN8yq6ivktAlC2n9vt-108" value="" style="shape=waypoint;sketch=0;fillStyle=solid;size=6;pointerEvents=1;points=[];fillColor=none;resizable=0;rotatable=0;perimeter=centerPerimeter;snapToPoint=1;rounded=1;shadow=0;glass=0;labelBackgroundColor=none;fontSize=8;fontColor=#000000;rotation=90;" parent="IaYN8yq6ivktAlC2n9vt-107" vertex="1">
          <mxGeometry x="25.858125508267825" y="11" width="40" height="40" as="geometry" />
        </mxCell>
        <mxCell id="IaYN8yq6ivktAlC2n9vt-109" value="" style="shape=waypoint;sketch=0;fillStyle=solid;size=6;pointerEvents=1;points=[];fillColor=none;resizable=0;rotatable=0;perimeter=centerPerimeter;snapToPoint=1;rounded=1;shadow=0;glass=0;labelBackgroundColor=none;fontSize=8;fontColor=#000000;rotation=90;" parent="IaYN8yq6ivktAlC2n9vt-107" vertex="1">
          <mxGeometry x="25.858125508267825" width="40" height="40" as="geometry" />
        </mxCell>
        <mxCell id="IaYN8yq6ivktAlC2n9vt-110" value="" style="shape=waypoint;sketch=0;fillStyle=solid;size=6;pointerEvents=1;points=[];fillColor=none;resizable=0;rotatable=0;perimeter=centerPerimeter;snapToPoint=1;rounded=1;shadow=0;glass=0;labelBackgroundColor=none;fontSize=8;fontColor=#000000;rotation=90;" parent="IaYN8yq6ivktAlC2n9vt-107" vertex="1">
          <mxGeometry x="25.858125508267825" y="-11" width="40" height="40" as="geometry" />
        </mxCell>
      </root>
    </mxGraphModel>
  </diagram>
  <diagram id="VPYtRL9pueuvKH_x1L6X" name="最小记录和最大记录">
    <mxGraphModel dx="782" dy="436" grid="1" gridSize="10" guides="1" tooltips="1" connect="1" arrows="1" fold="1" page="1" pageScale="1" pageWidth="1169" pageHeight="827" math="0" shadow="0">
      <root>
        <mxCell id="0" />
        <mxCell id="1" parent="0" />
        <mxCell id="gbQ0SgyPacY3eH118ywn-3" value="记录头信息" style="rounded=0;whiteSpace=wrap;html=1;fillColor=#1ba1e2;strokeColor=#006EAF;fontColor=#ffffff;" vertex="1" parent="1">
          <mxGeometry x="180" y="191" width="93" height="40" as="geometry" />
        </mxCell>
        <mxCell id="gbQ0SgyPacY3eH118ywn-4" value="69 6E 66 69 6D 75 6D 00" style="rounded=0;whiteSpace=wrap;html=1;fillColor=#fad7ac;strokeColor=#b46504;" vertex="1" parent="1">
          <mxGeometry x="273" y="191" width="147" height="40" as="geometry" />
        </mxCell>
        <mxCell id="gbQ0SgyPacY3eH118ywn-9" value="记录头信息" style="rounded=0;whiteSpace=wrap;html=1;fillColor=#1ba1e2;strokeColor=#006EAF;fontColor=#ffffff;" vertex="1" parent="1">
          <mxGeometry x="180" y="231" width="93" height="40" as="geometry" />
        </mxCell>
        <mxCell id="gbQ0SgyPacY3eH118ywn-10" value="73 75 70 72 65 6D 75 6D" style="rounded=0;whiteSpace=wrap;html=1;fillColor=#fad7ac;strokeColor=#b46504;" vertex="1" parent="1">
          <mxGeometry x="273" y="231" width="147" height="40" as="geometry" />
        </mxCell>
        <mxCell id="gbQ0SgyPacY3eH118ywn-13" value="最小记录" style="text;html=1;strokeColor=none;fillColor=none;align=center;verticalAlign=middle;whiteSpace=wrap;rounded=0;" vertex="1" parent="1">
          <mxGeometry x="118" y="200" width="70" height="30" as="geometry" />
        </mxCell>
        <mxCell id="gbQ0SgyPacY3eH118ywn-14" value="最大记录" style="text;html=1;strokeColor=none;fillColor=none;align=center;verticalAlign=middle;whiteSpace=wrap;rounded=0;" vertex="1" parent="1">
          <mxGeometry x="118" y="235" width="70" height="30" as="geometry" />
        </mxCell>
        <mxCell id="gbQ0SgyPacY3eH118ywn-16" value="" style="shape=curlyBracket;whiteSpace=wrap;html=1;rounded=1;flipH=1;labelPosition=right;verticalLabelPosition=middle;align=left;verticalAlign=middle;direction=south;" vertex="1" parent="1">
          <mxGeometry x="180" y="170" width="93" height="20" as="geometry" />
        </mxCell>
        <mxCell id="gbQ0SgyPacY3eH118ywn-17" value="固定 &lt;font color=&quot;#ff0000&quot;&gt;5&lt;/font&gt; 个字节" style="text;html=1;strokeColor=none;fillColor=none;align=center;verticalAlign=middle;whiteSpace=wrap;rounded=0;" vertex="1" parent="1">
          <mxGeometry x="184.75" y="150" width="83.5" height="30" as="geometry" />
        </mxCell>
        <mxCell id="gbQ0SgyPacY3eH118ywn-18" value="固定，代表单词&lt;br&gt;&lt;font color=&quot;#ff0000&quot;&gt;infimum&lt;/font&gt;" style="text;html=1;strokeColor=none;fillColor=none;align=center;verticalAlign=middle;whiteSpace=wrap;rounded=0;" vertex="1" parent="1">
          <mxGeometry x="420" y="196" width="90" height="30" as="geometry" />
        </mxCell>
        <mxCell id="gbQ0SgyPacY3eH118ywn-19" value="固定，代表单词&lt;br&gt;&lt;font color=&quot;#ff0000&quot;&gt;supremum&lt;/font&gt;" style="text;html=1;strokeColor=none;fillColor=none;align=center;verticalAlign=middle;whiteSpace=wrap;rounded=0;" vertex="1" parent="1">
          <mxGeometry x="420" y="236" width="90" height="30" as="geometry" />
        </mxCell>
        <mxCell id="gbQ0SgyPacY3eH118ywn-20" value="" style="shape=curlyBracket;whiteSpace=wrap;html=1;rounded=1;flipH=1;labelPosition=right;verticalLabelPosition=middle;align=left;verticalAlign=middle;direction=south;" vertex="1" parent="1">
          <mxGeometry x="273" y="170" width="147" height="20" as="geometry" />
        </mxCell>
        <mxCell id="gbQ0SgyPacY3eH118ywn-21" value="固定 &lt;font color=&quot;#ff0000&quot;&gt;8&lt;/font&gt; 个字节" style="text;html=1;strokeColor=none;fillColor=none;align=center;verticalAlign=middle;whiteSpace=wrap;rounded=0;" vertex="1" parent="1">
          <mxGeometry x="306.75" y="150" width="83.5" height="30" as="geometry" />
        </mxCell>
      </root>
    </mxGraphModel>
  </diagram>
  <diagram id="alpUwOOaJ3Pw6ZPa9BAX" name="记录链表">
    <mxGraphModel dx="782" dy="436" grid="1" gridSize="10" guides="1" tooltips="1" connect="1" arrows="1" fold="1" page="1" pageScale="1" pageWidth="1169" pageHeight="827" math="0" shadow="0">
      <root>
        <mxCell id="0" />
        <mxCell id="1" parent="0" />
        <mxCell id="f5UB7OSNji6uDocAHQ5a-1" value="其他头信息" style="rounded=0;whiteSpace=wrap;html=1;fillColor=#1ba1e2;strokeColor=#006EAF;fontColor=#ffffff;" vertex="1" parent="1">
          <mxGeometry x="80" y="130" width="70" height="30" as="geometry" />
        </mxCell>
        <mxCell id="f5UB7OSNji6uDocAHQ5a-2" value="infimum" style="rounded=0;whiteSpace=wrap;html=1;fillColor=#fad7ac;strokeColor=#b46504;" vertex="1" parent="1">
          <mxGeometry x="193" y="130" width="147" height="30" as="geometry" />
        </mxCell>
        <mxCell id="f5UB7OSNji6uDocAHQ5a-4" value="supremum" style="rounded=0;whiteSpace=wrap;html=1;fillColor=#fad7ac;strokeColor=#b46504;" vertex="1" parent="1">
          <mxGeometry x="473" y="130" width="147" height="30" as="geometry" />
        </mxCell>
        <mxCell id="f5UB7OSNji6uDocAHQ5a-11" value="" style="rounded=0;whiteSpace=wrap;html=1;fillColor=#1ba1e2;strokeColor=#006EAF;fontColor=#ffffff;" vertex="1" parent="1">
          <mxGeometry x="150" y="130" width="43" height="30" as="geometry" />
        </mxCell>
        <mxCell id="f5UB7OSNji6uDocAHQ5a-12" value="其他头信息" style="rounded=0;whiteSpace=wrap;html=1;fillColor=#1ba1e2;strokeColor=#006EAF;fontColor=#ffffff;" vertex="1" parent="1">
          <mxGeometry x="360" y="130" width="70" height="30" as="geometry" />
        </mxCell>
        <mxCell id="f5UB7OSNji6uDocAHQ5a-13" value="0" style="rounded=0;whiteSpace=wrap;html=1;fillColor=#1ba1e2;strokeColor=#006EAF;fontColor=#ffffff;" vertex="1" parent="1">
          <mxGeometry x="430" y="130" width="43" height="30" as="geometry" />
        </mxCell>
        <mxCell id="f5UB7OSNji6uDocAHQ5a-14" value="next_record" style="text;html=1;strokeColor=none;fillColor=none;align=center;verticalAlign=middle;whiteSpace=wrap;rounded=0;fontColor=#FF0000;" vertex="1" parent="1">
          <mxGeometry x="129" y="100" width="60" height="30" as="geometry" />
        </mxCell>
        <mxCell id="f5UB7OSNji6uDocAHQ5a-15" value="next_record" style="text;html=1;strokeColor=none;fillColor=none;align=center;verticalAlign=middle;whiteSpace=wrap;rounded=0;fontColor=#FF0000;" vertex="1" parent="1">
          <mxGeometry x="410" y="100" width="60" height="30" as="geometry" />
        </mxCell>
        <mxCell id="f5UB7OSNji6uDocAHQ5a-16" value="记录 1" style="rounded=0;whiteSpace=wrap;html=1;fillColor=#fad7ac;strokeColor=#b46504;" vertex="1" parent="1">
          <mxGeometry x="313" y="206" width="147" height="30" as="geometry" />
        </mxCell>
        <mxCell id="f5UB7OSNji6uDocAHQ5a-17" value="其他头信息" style="rounded=0;whiteSpace=wrap;html=1;fillColor=#1ba1e2;strokeColor=#006EAF;fontColor=#ffffff;" vertex="1" parent="1">
          <mxGeometry x="200" y="206" width="70" height="30" as="geometry" />
        </mxCell>
        <mxCell id="f5UB7OSNji6uDocAHQ5a-18" value="" style="rounded=0;whiteSpace=wrap;html=1;fillColor=#1ba1e2;strokeColor=#006EAF;fontColor=#ffffff;" vertex="1" parent="1">
          <mxGeometry x="270" y="206" width="43" height="30" as="geometry" />
        </mxCell>
        <mxCell id="f5UB7OSNji6uDocAHQ5a-19" value="next_record" style="text;html=1;strokeColor=none;fillColor=none;align=center;verticalAlign=middle;whiteSpace=wrap;rounded=0;fontColor=#FF0000;" vertex="1" parent="1">
          <mxGeometry x="248" y="176" width="60" height="30" as="geometry" />
        </mxCell>
        <mxCell id="f5UB7OSNji6uDocAHQ5a-20" value="记录 2" style="rounded=0;whiteSpace=wrap;html=1;fillColor=#fad7ac;strokeColor=#b46504;" vertex="1" parent="1">
          <mxGeometry x="313" y="277" width="147" height="30" as="geometry" />
        </mxCell>
        <mxCell id="f5UB7OSNji6uDocAHQ5a-21" value="其他头信息" style="rounded=0;whiteSpace=wrap;html=1;fillColor=#1ba1e2;strokeColor=#006EAF;fontColor=#ffffff;" vertex="1" parent="1">
          <mxGeometry x="200" y="277" width="70" height="30" as="geometry" />
        </mxCell>
        <mxCell id="f5UB7OSNji6uDocAHQ5a-22" value="" style="rounded=0;whiteSpace=wrap;html=1;fillColor=#1ba1e2;strokeColor=#006EAF;fontColor=#ffffff;" vertex="1" parent="1">
          <mxGeometry x="270" y="277" width="43" height="30" as="geometry" />
        </mxCell>
        <mxCell id="f5UB7OSNji6uDocAHQ5a-23" value="next_record" style="text;html=1;strokeColor=none;fillColor=none;align=center;verticalAlign=middle;whiteSpace=wrap;rounded=0;fontColor=#FF0000;" vertex="1" parent="1">
          <mxGeometry x="246" y="248" width="60" height="30" as="geometry" />
        </mxCell>
        <mxCell id="f5UB7OSNji6uDocAHQ5a-24" value="记录 n" style="rounded=0;whiteSpace=wrap;html=1;fillColor=#fad7ac;strokeColor=#b46504;" vertex="1" parent="1">
          <mxGeometry x="313" y="342" width="147" height="30" as="geometry" />
        </mxCell>
        <mxCell id="f5UB7OSNji6uDocAHQ5a-25" value="其他头信息" style="rounded=0;whiteSpace=wrap;html=1;fillColor=#1ba1e2;strokeColor=#006EAF;fontColor=#ffffff;" vertex="1" parent="1">
          <mxGeometry x="200" y="342" width="70" height="30" as="geometry" />
        </mxCell>
        <mxCell id="f5UB7OSNji6uDocAHQ5a-26" value="" style="rounded=0;whiteSpace=wrap;html=1;fillColor=#1ba1e2;strokeColor=#006EAF;fontColor=#ffffff;" vertex="1" parent="1">
          <mxGeometry x="270" y="342" width="43" height="30" as="geometry" />
        </mxCell>
        <mxCell id="f5UB7OSNji6uDocAHQ5a-27" value="next_record" style="text;html=1;strokeColor=none;fillColor=none;align=center;verticalAlign=middle;whiteSpace=wrap;rounded=0;fontColor=#FF0000;" vertex="1" parent="1">
          <mxGeometry x="247" y="316" width="60" height="30" as="geometry" />
        </mxCell>
        <mxCell id="f5UB7OSNji6uDocAHQ5a-28" value="" style="edgeStyle=elbowEdgeStyle;elbow=vertical;endArrow=classic;html=1;rounded=0;fontColor=#FF0000;entryX=0;entryY=0;entryDx=0;entryDy=0;" edge="1" parent="1" source="f5UB7OSNji6uDocAHQ5a-30" target="f5UB7OSNji6uDocAHQ5a-16">
          <mxGeometry width="50" height="50" relative="1" as="geometry">
            <mxPoint x="350" y="340" as="sourcePoint" />
            <mxPoint x="400" y="290" as="targetPoint" />
          </mxGeometry>
        </mxCell>
        <mxCell id="f5UB7OSNji6uDocAHQ5a-29" value="" style="edgeStyle=elbowEdgeStyle;elbow=vertical;endArrow=classic;html=1;rounded=0;fontColor=#FF0000;entryX=0;entryY=0;entryDx=0;entryDy=0;" edge="1" parent="1" source="f5UB7OSNji6uDocAHQ5a-31" target="f5UB7OSNji6uDocAHQ5a-20">
          <mxGeometry width="50" height="50" relative="1" as="geometry">
            <mxPoint x="350" y="326" as="sourcePoint" />
            <mxPoint x="400" y="276" as="targetPoint" />
          </mxGeometry>
        </mxCell>
        <mxCell id="f5UB7OSNji6uDocAHQ5a-30" value="" style="shape=waypoint;sketch=0;fillStyle=solid;size=6;pointerEvents=1;points=[];fillColor=none;resizable=0;rotatable=0;perimeter=centerPerimeter;snapToPoint=1;fontColor=#FF0000;" vertex="1" parent="1">
          <mxGeometry x="150" y="125" width="40" height="40" as="geometry" />
        </mxCell>
        <mxCell id="f5UB7OSNji6uDocAHQ5a-31" value="" style="shape=waypoint;sketch=0;fillStyle=solid;size=6;pointerEvents=1;points=[];fillColor=none;resizable=0;rotatable=0;perimeter=centerPerimeter;snapToPoint=1;fontColor=#FF0000;" vertex="1" parent="1">
          <mxGeometry x="271.5" y="201" width="40" height="40" as="geometry" />
        </mxCell>
        <mxCell id="f5UB7OSNji6uDocAHQ5a-32" value="" style="shape=waypoint;sketch=0;fillStyle=solid;size=6;pointerEvents=1;points=[];fillColor=none;resizable=0;rotatable=0;perimeter=centerPerimeter;snapToPoint=1;fontColor=#FF0000;" vertex="1" parent="1">
          <mxGeometry x="271.5" y="274" width="40" height="40" as="geometry" />
        </mxCell>
        <mxCell id="f5UB7OSNji6uDocAHQ5a-33" value="" style="edgeStyle=elbowEdgeStyle;elbow=vertical;endArrow=classic;html=1;rounded=0;fontColor=#FF0000;exitX=0.529;exitY=0.575;exitDx=0;exitDy=0;exitPerimeter=0;entryX=0;entryY=0;entryDx=0;entryDy=0;" edge="1" parent="1" source="f5UB7OSNji6uDocAHQ5a-32" target="f5UB7OSNji6uDocAHQ5a-24">
          <mxGeometry width="50" height="50" relative="1" as="geometry">
            <mxPoint x="350" y="326" as="sourcePoint" />
            <mxPoint x="400" y="276" as="targetPoint" />
          </mxGeometry>
        </mxCell>
        <mxCell id="f5UB7OSNji6uDocAHQ5a-34" value="" style="shape=waypoint;sketch=0;fillStyle=solid;size=6;pointerEvents=1;points=[];fillColor=none;resizable=0;rotatable=0;perimeter=centerPerimeter;snapToPoint=1;fontColor=#FF0000;" vertex="1" parent="1">
          <mxGeometry x="271.5" y="337" width="40" height="40" as="geometry" />
        </mxCell>
        <mxCell id="f5UB7OSNji6uDocAHQ5a-35" value="" style="edgeStyle=elbowEdgeStyle;elbow=vertical;endArrow=classic;html=1;rounded=0;fontColor=#FF0000;entryX=0;entryY=1;entryDx=0;entryDy=0;" edge="1" parent="1">
          <mxGeometry width="50" height="50" relative="1" as="geometry">
            <mxPoint x="291.5" y="362" as="sourcePoint" />
            <mxPoint x="473" y="159" as="targetPoint" />
            <Array as="points">
              <mxPoint x="380" y="380" />
            </Array>
          </mxGeometry>
        </mxCell>
      </root>
    </mxGraphModel>
  </diagram>
</mxfile>
